<svg xmlns="http://www.w3.org/2000/svg" viewBox="0 0 1100 560" role="img" font-family="Nunito, 'Segoe UI', system-ui, sans-serif"><title>Cadena de transporte de electrones y fosforilación oxidativa en la membrana mitocondrial interna</title>
<defs><marker id="fl" viewBox="0 0 10 10" refX="8" refY="5" markerWidth="7" markerHeight="7" orient="auto-start-reverse"><path d="M0,0 L10,5 L0,10 z" fill="#2a7fc1"/></marker><marker id="fk" viewBox="0 0 10 10" refX="8" refY="5" markerWidth="7" markerHeight="7" orient="auto-start-reverse"><path d="M0,0 L10,5 L0,10 z" fill="#22313f"/></marker><radialGradient id="gO" cx="35%" cy="35%" r="70%"><stop offset="0" stop-color="#f08a7e"/><stop offset="1" stop-color="#c0392b"/></radialGradient><radialGradient id="gH" cx="35%" cy="35%" r="70%"><stop offset="0" stop-color="#ffffff"/><stop offset="1" stop-color="#d5dde3"/></radialGradient></defs>
<rect x="10" y="10" width="1080" height="150" rx="16" fill="#fdf0e6"/><text x="30.0" y="40.0" font-size="15" text-anchor="start" font-weight="900" fill="#b5532c" >ESPACIO INTERMEMBRANA</text>
<rect x="10" y="300" width="1080" height="250" rx="16" fill="#fbe3d3"/><text x="30.0" y="538.0" font-size="15" text-anchor="start" font-weight="900" fill="#b5532c" >MATRIZ</text>
<circle cx="20" cy="172" r="6" fill="#f4a261"/><circle cx="20" cy="288" r="6" fill="#f4a261"/><line x1="20.0" y1="178.0" x2="20.0" y2="225.0" stroke="#e2c56a" stroke-width="1.6" stroke-linecap="round" /><line x1="20.0" y1="235.0" x2="20.0" y2="282.0" stroke="#e2c56a" stroke-width="1.6" stroke-linecap="round" /><circle cx="34" cy="172" r="6" fill="#f4a261"/><circle cx="34" cy="288" r="6" fill="#f4a261"/><line x1="34.0" y1="178.0" x2="34.0" y2="225.0" stroke="#e2c56a" stroke-width="1.6" stroke-linecap="round" /><line x1="34.0" y1="235.0" x2="34.0" y2="282.0" stroke="#e2c56a" stroke-width="1.6" stroke-linecap="round" /><circle cx="48" cy="172" r="6" fill="#f4a261"/><circle cx="48" cy="288" r="6" fill="#f4a261"/><line x1="48.0" y1="178.0" x2="48.0" y2="225.0" stroke="#e2c56a" stroke-width="1.6" stroke-linecap="round" /><line x1="48.0" y1="235.0" x2="48.0" y2="282.0" stroke="#e2c56a" stroke-width="1.6" stroke-linecap="round" /><circle cx="62" cy="172" r="6" fill="#f4a261"/><circle cx="62" cy="288" r="6" fill="#f4a261"/><line x1="62.0" y1="178.0" x2="62.0" y2="225.0" stroke="#e2c56a" stroke-width="1.6" stroke-linecap="round" /><line x1="62.0" y1="235.0" x2="62.0" y2="282.0" stroke="#e2c56a" stroke-width="1.6" stroke-linecap="round" /><circle cx="76" cy="172" r="6" fill="#f4a261"/><circle cx="76" cy="288" r="6" fill="#f4a261"/><line x1="76.0" y1="178.0" x2="76.0" y2="225.0" stroke="#e2c56a" stroke-width="1.6" stroke-linecap="round" /><line x1="76.0" y1="235.0" x2="76.0" y2="282.0" stroke="#e2c56a" stroke-width="1.6" stroke-linecap="round" /><circle cx="90" cy="172" r="6" fill="#f4a261"/><circle cx="90" cy="288" r="6" fill="#f4a261"/><line x1="90.0" y1="178.0" x2="90.0" y2="225.0" stroke="#e2c56a" stroke-width="1.6" stroke-linecap="round" /><line x1="90.0" y1="235.0" x2="90.0" y2="282.0" stroke="#e2c56a" stroke-width="1.6" stroke-linecap="round" /><circle cx="104" cy="172" r="6" fill="#f4a261"/><circle cx="104" cy="288" r="6" fill="#f4a261"/><line x1="104.0" y1="178.0" x2="104.0" y2="225.0" stroke="#e2c56a" stroke-width="1.6" stroke-linecap="round" /><line x1="104.0" y1="235.0" x2="104.0" y2="282.0" stroke="#e2c56a" stroke-width="1.6" stroke-linecap="round" /><circle cx="118" cy="172" r="6" fill="#f4a261"/><circle cx="118" cy="288" r="6" fill="#f4a261"/><line x1="118.0" y1="178.0" x2="118.0" y2="225.0" stroke="#e2c56a" stroke-width="1.6" stroke-linecap="round" /><line x1="118.0" y1="235.0" x2="118.0" y2="282.0" stroke="#e2c56a" stroke-width="1.6" stroke-linecap="round" /><circle cx="132" cy="172" r="6" fill="#f4a261"/><circle cx="132" cy="288" r="6" fill="#f4a261"/><line x1="132.0" y1="178.0" x2="132.0" y2="225.0" stroke="#e2c56a" stroke-width="1.6" stroke-linecap="round" /><line x1="132.0" y1="235.0" x2="132.0" y2="282.0" stroke="#e2c56a" stroke-width="1.6" stroke-linecap="round" /><circle cx="146" cy="172" r="6" fill="#f4a261"/><circle cx="146" cy="288" r="6" fill="#f4a261"/><line x1="146.0" y1="178.0" x2="146.0" y2="225.0" stroke="#e2c56a" stroke-width="1.6" stroke-linecap="round" /><line x1="146.0" y1="235.0" x2="146.0" y2="282.0" stroke="#e2c56a" stroke-width="1.6" stroke-linecap="round" /><circle cx="160" cy="172" r="6" fill="#f4a261"/><circle cx="160" cy="288" r="6" fill="#f4a261"/><line x1="160.0" y1="178.0" x2="160.0" y2="225.0" stroke="#e2c56a" stroke-width="1.6" stroke-linecap="round" /><line x1="160.0" y1="235.0" x2="160.0" y2="282.0" stroke="#e2c56a" stroke-width="1.6" stroke-linecap="round" /><circle cx="174" cy="172" r="6" fill="#f4a261"/><circle cx="174" cy="288" r="6" fill="#f4a261"/><line x1="174.0" y1="178.0" x2="174.0" y2="225.0" stroke="#e2c56a" stroke-width="1.6" stroke-linecap="round" /><line x1="174.0" y1="235.0" x2="174.0" y2="282.0" stroke="#e2c56a" stroke-width="1.6" stroke-linecap="round" /><circle cx="188" cy="172" r="6" fill="#f4a261"/><circle cx="188" cy="288" r="6" fill="#f4a261"/><line x1="188.0" y1="178.0" x2="188.0" y2="225.0" stroke="#e2c56a" stroke-width="1.6" stroke-linecap="round" /><line x1="188.0" y1="235.0" x2="188.0" y2="282.0" stroke="#e2c56a" stroke-width="1.6" stroke-linecap="round" /><circle cx="202" cy="172" r="6" fill="#f4a261"/><circle cx="202" cy="288" r="6" fill="#f4a261"/><line x1="202.0" y1="178.0" x2="202.0" y2="225.0" stroke="#e2c56a" stroke-width="1.6" stroke-linecap="round" /><line x1="202.0" y1="235.0" x2="202.0" y2="282.0" stroke="#e2c56a" stroke-width="1.6" stroke-linecap="round" /><circle cx="216" cy="172" r="6" fill="#f4a261"/><circle cx="216" cy="288" r="6" fill="#f4a261"/><line x1="216.0" y1="178.0" x2="216.0" y2="225.0" stroke="#e2c56a" stroke-width="1.6" stroke-linecap="round" /><line x1="216.0" y1="235.0" x2="216.0" y2="282.0" stroke="#e2c56a" stroke-width="1.6" stroke-linecap="round" /><circle cx="230" cy="172" r="6" fill="#f4a261"/><circle cx="230" cy="288" r="6" fill="#f4a261"/><line x1="230.0" y1="178.0" x2="230.0" y2="225.0" stroke="#e2c56a" stroke-width="1.6" stroke-linecap="round" /><line x1="230.0" y1="235.0" x2="230.0" y2="282.0" stroke="#e2c56a" stroke-width="1.6" stroke-linecap="round" /><circle cx="244" cy="172" r="6" fill="#f4a261"/><circle cx="244" cy="288" r="6" fill="#f4a261"/><line x1="244.0" y1="178.0" x2="244.0" y2="225.0" stroke="#e2c56a" stroke-width="1.6" stroke-linecap="round" /><line x1="244.0" y1="235.0" x2="244.0" y2="282.0" stroke="#e2c56a" stroke-width="1.6" stroke-linecap="round" /><circle cx="258" cy="172" r="6" fill="#f4a261"/><circle cx="258" cy="288" r="6" fill="#f4a261"/><line x1="258.0" y1="178.0" x2="258.0" y2="225.0" stroke="#e2c56a" stroke-width="1.6" stroke-linecap="round" /><line x1="258.0" y1="235.0" x2="258.0" y2="282.0" stroke="#e2c56a" stroke-width="1.6" stroke-linecap="round" /><circle cx="272" cy="172" r="6" fill="#f4a261"/><circle cx="272" cy="288" r="6" fill="#f4a261"/><line x1="272.0" y1="178.0" x2="272.0" y2="225.0" stroke="#e2c56a" stroke-width="1.6" stroke-linecap="round" /><line x1="272.0" y1="235.0" x2="272.0" y2="282.0" stroke="#e2c56a" stroke-width="1.6" stroke-linecap="round" /><circle cx="286" cy="172" r="6" fill="#f4a261"/><circle cx="286" cy="288" r="6" fill="#f4a261"/><line x1="286.0" y1="178.0" x2="286.0" y2="225.0" stroke="#e2c56a" stroke-width="1.6" stroke-linecap="round" /><line x1="286.0" y1="235.0" x2="286.0" y2="282.0" stroke="#e2c56a" stroke-width="1.6" stroke-linecap="round" /><circle cx="300" cy="172" r="6" fill="#f4a261"/><circle cx="300" cy="288" r="6" fill="#f4a261"/><line x1="300.0" y1="178.0" x2="300.0" y2="225.0" stroke="#e2c56a" stroke-width="1.6" stroke-linecap="round" /><line x1="300.0" y1="235.0" x2="300.0" y2="282.0" stroke="#e2c56a" stroke-width="1.6" stroke-linecap="round" /><circle cx="314" cy="172" r="6" fill="#f4a261"/><circle cx="314" cy="288" r="6" fill="#f4a261"/><line x1="314.0" y1="178.0" x2="314.0" y2="225.0" stroke="#e2c56a" stroke-width="1.6" stroke-linecap="round" /><line x1="314.0" y1="235.0" x2="314.0" y2="282.0" stroke="#e2c56a" stroke-width="1.6" stroke-linecap="round" /><circle cx="328" cy="172" r="6" fill="#f4a261"/><circle cx="328" cy="288" r="6" fill="#f4a261"/><line x1="328.0" y1="178.0" x2="328.0" y2="225.0" stroke="#e2c56a" stroke-width="1.6" stroke-linecap="round" /><line x1="328.0" y1="235.0" x2="328.0" y2="282.0" stroke="#e2c56a" stroke-width="1.6" stroke-linecap="round" /><circle cx="342" cy="172" r="6" fill="#f4a261"/><circle cx="342" cy="288" r="6" fill="#f4a261"/><line x1="342.0" y1="178.0" x2="342.0" y2="225.0" stroke="#e2c56a" stroke-width="1.6" stroke-linecap="round" /><line x1="342.0" y1="235.0" x2="342.0" y2="282.0" stroke="#e2c56a" stroke-width="1.6" stroke-linecap="round" /><circle cx="356" cy="172" r="6" fill="#f4a261"/><circle cx="356" cy="288" r="6" fill="#f4a261"/><line x1="356.0" y1="178.0" x2="356.0" y2="225.0" stroke="#e2c56a" stroke-width="1.6" stroke-linecap="round" /><line x1="356.0" y1="235.0" x2="356.0" y2="282.0" stroke="#e2c56a" stroke-width="1.6" stroke-linecap="round" /><circle cx="370" cy="172" r="6" fill="#f4a261"/><circle cx="370" cy="288" r="6" fill="#f4a261"/><line x1="370.0" y1="178.0" x2="370.0" y2="225.0" stroke="#e2c56a" stroke-width="1.6" stroke-linecap="round" /><line x1="370.0" y1="235.0" x2="370.0" y2="282.0" stroke="#e2c56a" stroke-width="1.6" stroke-linecap="round" /><circle cx="384" cy="172" r="6" fill="#f4a261"/><circle cx="384" cy="288" r="6" fill="#f4a261"/><line x1="384.0" y1="178.0" x2="384.0" y2="225.0" stroke="#e2c56a" stroke-width="1.6" stroke-linecap="round" /><line x1="384.0" y1="235.0" x2="384.0" y2="282.0" stroke="#e2c56a" stroke-width="1.6" stroke-linecap="round" /><circle cx="398" cy="172" r="6" fill="#f4a261"/><circle cx="398" cy="288" r="6" fill="#f4a261"/><line x1="398.0" y1="178.0" x2="398.0" y2="225.0" stroke="#e2c56a" stroke-width="1.6" stroke-linecap="round" /><line x1="398.0" y1="235.0" x2="398.0" y2="282.0" stroke="#e2c56a" stroke-width="1.6" stroke-linecap="round" /><circle cx="412" cy="172" r="6" fill="#f4a261"/><circle cx="412" cy="288" r="6" fill="#f4a261"/><line x1="412.0" y1="178.0" x2="412.0" y2="225.0" stroke="#e2c56a" stroke-width="1.6" stroke-linecap="round" /><line x1="412.0" y1="235.0" x2="412.0" y2="282.0" stroke="#e2c56a" stroke-width="1.6" stroke-linecap="round" /><circle cx="426" cy="172" r="6" fill="#f4a261"/><circle cx="426" cy="288" r="6" fill="#f4a261"/><line x1="426.0" y1="178.0" x2="426.0" y2="225.0" stroke="#e2c56a" stroke-width="1.6" stroke-linecap="round" /><line x1="426.0" y1="235.0" x2="426.0" y2="282.0" stroke="#e2c56a" stroke-width="1.6" stroke-linecap="round" /><circle cx="440" cy="172" r="6" fill="#f4a261"/><circle cx="440" cy="288" r="6" fill="#f4a261"/><line x1="440.0" y1="178.0" x2="440.0" y2="225.0" stroke="#e2c56a" stroke-width="1.6" stroke-linecap="round" /><line x1="440.0" y1="235.0" x2="440.0" y2="282.0" stroke="#e2c56a" stroke-width="1.6" stroke-linecap="round" /><circle cx="454" cy="172" r="6" fill="#f4a261"/><circle cx="454" cy="288" r="6" fill="#f4a261"/><line x1="454.0" y1="178.0" x2="454.0" y2="225.0" stroke="#e2c56a" stroke-width="1.6" stroke-linecap="round" /><line x1="454.0" y1="235.0" x2="454.0" y2="282.0" stroke="#e2c56a" stroke-width="1.6" stroke-linecap="round" /><circle cx="468" cy="172" r="6" fill="#f4a261"/><circle cx="468" cy="288" r="6" fill="#f4a261"/><line x1="468.0" y1="178.0" x2="468.0" y2="225.0" stroke="#e2c56a" stroke-width="1.6" stroke-linecap="round" /><line x1="468.0" y1="235.0" x2="468.0" y2="282.0" stroke="#e2c56a" stroke-width="1.6" stroke-linecap="round" /><circle cx="482" cy="172" r="6" fill="#f4a261"/><circle cx="482" cy="288" r="6" fill="#f4a261"/><line x1="482.0" y1="178.0" x2="482.0" y2="225.0" stroke="#e2c56a" stroke-width="1.6" stroke-linecap="round" /><line x1="482.0" y1="235.0" x2="482.0" y2="282.0" stroke="#e2c56a" stroke-width="1.6" stroke-linecap="round" /><circle cx="496" cy="172" r="6" fill="#f4a261"/><circle cx="496" cy="288" r="6" fill="#f4a261"/><line x1="496.0" y1="178.0" x2="496.0" y2="225.0" stroke="#e2c56a" stroke-width="1.6" stroke-linecap="round" /><line x1="496.0" y1="235.0" x2="496.0" y2="282.0" stroke="#e2c56a" stroke-width="1.6" stroke-linecap="round" /><circle cx="510" cy="172" r="6" fill="#f4a261"/><circle cx="510" cy="288" r="6" fill="#f4a261"/><line x1="510.0" y1="178.0" x2="510.0" y2="225.0" stroke="#e2c56a" stroke-width="1.6" stroke-linecap="round" /><line x1="510.0" y1="235.0" x2="510.0" y2="282.0" stroke="#e2c56a" stroke-width="1.6" stroke-linecap="round" /><circle cx="524" cy="172" r="6" fill="#f4a261"/><circle cx="524" cy="288" r="6" fill="#f4a261"/><line x1="524.0" y1="178.0" x2="524.0" y2="225.0" stroke="#e2c56a" stroke-width="1.6" stroke-linecap="round" /><line x1="524.0" y1="235.0" x2="524.0" y2="282.0" stroke="#e2c56a" stroke-width="1.6" stroke-linecap="round" /><circle cx="538" cy="172" r="6" fill="#f4a261"/><circle cx="538" cy="288" r="6" fill="#f4a261"/><line x1="538.0" y1="178.0" x2="538.0" y2="225.0" stroke="#e2c56a" stroke-width="1.6" stroke-linecap="round" /><line x1="538.0" y1="235.0" x2="538.0" y2="282.0" stroke="#e2c56a" stroke-width="1.6" stroke-linecap="round" /><circle cx="552" cy="172" r="6" fill="#f4a261"/><circle cx="552" cy="288" r="6" fill="#f4a261"/><line x1="552.0" y1="178.0" x2="552.0" y2="225.0" stroke="#e2c56a" stroke-width="1.6" stroke-linecap="round" /><line x1="552.0" y1="235.0" x2="552.0" y2="282.0" stroke="#e2c56a" stroke-width="1.6" stroke-linecap="round" /><circle cx="566" cy="172" r="6" fill="#f4a261"/><circle cx="566" cy="288" r="6" fill="#f4a261"/><line x1="566.0" y1="178.0" x2="566.0" y2="225.0" stroke="#e2c56a" stroke-width="1.6" stroke-linecap="round" /><line x1="566.0" y1="235.0" x2="566.0" y2="282.0" stroke="#e2c56a" stroke-width="1.6" stroke-linecap="round" /><circle cx="580" cy="172" r="6" fill="#f4a261"/><circle cx="580" cy="288" r="6" fill="#f4a261"/><line x1="580.0" y1="178.0" x2="580.0" y2="225.0" stroke="#e2c56a" stroke-width="1.6" stroke-linecap="round" /><line x1="580.0" y1="235.0" x2="580.0" y2="282.0" stroke="#e2c56a" stroke-width="1.6" stroke-linecap="round" /><circle cx="594" cy="172" r="6" fill="#f4a261"/><circle cx="594" cy="288" r="6" fill="#f4a261"/><line x1="594.0" y1="178.0" x2="594.0" y2="225.0" stroke="#e2c56a" stroke-width="1.6" stroke-linecap="round" /><line x1="594.0" y1="235.0" x2="594.0" y2="282.0" stroke="#e2c56a" stroke-width="1.6" stroke-linecap="round" /><circle cx="608" cy="172" r="6" fill="#f4a261"/><circle cx="608" cy="288" r="6" fill="#f4a261"/><line x1="608.0" y1="178.0" x2="608.0" y2="225.0" stroke="#e2c56a" stroke-width="1.6" stroke-linecap="round" /><line x1="608.0" y1="235.0" x2="608.0" y2="282.0" stroke="#e2c56a" stroke-width="1.6" stroke-linecap="round" /><circle cx="622" cy="172" r="6" fill="#f4a261"/><circle cx="622" cy="288" r="6" fill="#f4a261"/><line x1="622.0" y1="178.0" x2="622.0" y2="225.0" stroke="#e2c56a" stroke-width="1.6" stroke-linecap="round" /><line x1="622.0" y1="235.0" x2="622.0" y2="282.0" stroke="#e2c56a" stroke-width="1.6" stroke-linecap="round" /><circle cx="636" cy="172" r="6" fill="#f4a261"/><circle cx="636" cy="288" r="6" fill="#f4a261"/><line x1="636.0" y1="178.0" x2="636.0" y2="225.0" stroke="#e2c56a" stroke-width="1.6" stroke-linecap="round" /><line x1="636.0" y1="235.0" x2="636.0" y2="282.0" stroke="#e2c56a" stroke-width="1.6" stroke-linecap="round" /><circle cx="650" cy="172" r="6" fill="#f4a261"/><circle cx="650" cy="288" r="6" fill="#f4a261"/><line x1="650.0" y1="178.0" x2="650.0" y2="225.0" stroke="#e2c56a" stroke-width="1.6" stroke-linecap="round" /><line x1="650.0" y1="235.0" x2="650.0" y2="282.0" stroke="#e2c56a" stroke-width="1.6" stroke-linecap="round" /><circle cx="664" cy="172" r="6" fill="#f4a261"/><circle cx="664" cy="288" r="6" fill="#f4a261"/><line x1="664.0" y1="178.0" x2="664.0" y2="225.0" stroke="#e2c56a" stroke-width="1.6" stroke-linecap="round" /><line x1="664.0" y1="235.0" x2="664.0" y2="282.0" stroke="#e2c56a" stroke-width="1.6" stroke-linecap="round" /><circle cx="678" cy="172" r="6" fill="#f4a261"/><circle cx="678" cy="288" r="6" fill="#f4a261"/><line x1="678.0" y1="178.0" x2="678.0" y2="225.0" stroke="#e2c56a" stroke-width="1.6" stroke-linecap="round" /><line x1="678.0" y1="235.0" x2="678.0" y2="282.0" stroke="#e2c56a" stroke-width="1.6" stroke-linecap="round" /><circle cx="692" cy="172" r="6" fill="#f4a261"/><circle cx="692" cy="288" r="6" fill="#f4a261"/><line x1="692.0" y1="178.0" x2="692.0" y2="225.0" stroke="#e2c56a" stroke-width="1.6" stroke-linecap="round" /><line x1="692.0" y1="235.0" x2="692.0" y2="282.0" stroke="#e2c56a" stroke-width="1.6" stroke-linecap="round" /><circle cx="706" cy="172" r="6" fill="#f4a261"/><circle cx="706" cy="288" r="6" fill="#f4a261"/><line x1="706.0" y1="178.0" x2="706.0" y2="225.0" stroke="#e2c56a" stroke-width="1.6" stroke-linecap="round" /><line x1="706.0" y1="235.0" x2="706.0" y2="282.0" stroke="#e2c56a" stroke-width="1.6" stroke-linecap="round" /><circle cx="720" cy="172" r="6" fill="#f4a261"/><circle cx="720" cy="288" r="6" fill="#f4a261"/><line x1="720.0" y1="178.0" x2="720.0" y2="225.0" stroke="#e2c56a" stroke-width="1.6" stroke-linecap="round" /><line x1="720.0" y1="235.0" x2="720.0" y2="282.0" stroke="#e2c56a" stroke-width="1.6" stroke-linecap="round" /><circle cx="734" cy="172" r="6" fill="#f4a261"/><circle cx="734" cy="288" r="6" fill="#f4a261"/><line x1="734.0" y1="178.0" x2="734.0" y2="225.0" stroke="#e2c56a" stroke-width="1.6" stroke-linecap="round" /><line x1="734.0" y1="235.0" x2="734.0" y2="282.0" stroke="#e2c56a" stroke-width="1.6" stroke-linecap="round" /><circle cx="748" cy="172" r="6" fill="#f4a261"/><circle cx="748" cy="288" r="6" fill="#f4a261"/><line x1="748.0" y1="178.0" x2="748.0" y2="225.0" stroke="#e2c56a" stroke-width="1.6" stroke-linecap="round" /><line x1="748.0" y1="235.0" x2="748.0" y2="282.0" stroke="#e2c56a" stroke-width="1.6" stroke-linecap="round" /><circle cx="762" cy="172" r="6" fill="#f4a261"/><circle cx="762" cy="288" r="6" fill="#f4a261"/><line x1="762.0" y1="178.0" x2="762.0" y2="225.0" stroke="#e2c56a" stroke-width="1.6" stroke-linecap="round" /><line x1="762.0" y1="235.0" x2="762.0" y2="282.0" stroke="#e2c56a" stroke-width="1.6" stroke-linecap="round" /><circle cx="776" cy="172" r="6" fill="#f4a261"/><circle cx="776" cy="288" r="6" fill="#f4a261"/><line x1="776.0" y1="178.0" x2="776.0" y2="225.0" stroke="#e2c56a" stroke-width="1.6" stroke-linecap="round" /><line x1="776.0" y1="235.0" x2="776.0" y2="282.0" stroke="#e2c56a" stroke-width="1.6" stroke-linecap="round" /><circle cx="790" cy="172" r="6" fill="#f4a261"/><circle cx="790" cy="288" r="6" fill="#f4a261"/><line x1="790.0" y1="178.0" x2="790.0" y2="225.0" stroke="#e2c56a" stroke-width="1.6" stroke-linecap="round" /><line x1="790.0" y1="235.0" x2="790.0" y2="282.0" stroke="#e2c56a" stroke-width="1.6" stroke-linecap="round" /><circle cx="804" cy="172" r="6" fill="#f4a261"/><circle cx="804" cy="288" r="6" fill="#f4a261"/><line x1="804.0" y1="178.0" x2="804.0" y2="225.0" stroke="#e2c56a" stroke-width="1.6" stroke-linecap="round" /><line x1="804.0" y1="235.0" x2="804.0" y2="282.0" stroke="#e2c56a" stroke-width="1.6" stroke-linecap="round" /><circle cx="818" cy="172" r="6" fill="#f4a261"/><circle cx="818" cy="288" r="6" fill="#f4a261"/><line x1="818.0" y1="178.0" x2="818.0" y2="225.0" stroke="#e2c56a" stroke-width="1.6" stroke-linecap="round" /><line x1="818.0" y1="235.0" x2="818.0" y2="282.0" stroke="#e2c56a" stroke-width="1.6" stroke-linecap="round" /><circle cx="832" cy="172" r="6" fill="#f4a261"/><circle cx="832" cy="288" r="6" fill="#f4a261"/><line x1="832.0" y1="178.0" x2="832.0" y2="225.0" stroke="#e2c56a" stroke-width="1.6" stroke-linecap="round" /><line x1="832.0" y1="235.0" x2="832.0" y2="282.0" stroke="#e2c56a" stroke-width="1.6" stroke-linecap="round" /><circle cx="846" cy="172" r="6" fill="#f4a261"/><circle cx="846" cy="288" r="6" fill="#f4a261"/><line x1="846.0" y1="178.0" x2="846.0" y2="225.0" stroke="#e2c56a" stroke-width="1.6" stroke-linecap="round" /><line x1="846.0" y1="235.0" x2="846.0" y2="282.0" stroke="#e2c56a" stroke-width="1.6" stroke-linecap="round" /><circle cx="860" cy="172" r="6" fill="#f4a261"/><circle cx="860" cy="288" r="6" fill="#f4a261"/><line x1="860.0" y1="178.0" x2="860.0" y2="225.0" stroke="#e2c56a" stroke-width="1.6" stroke-linecap="round" /><line x1="860.0" y1="235.0" x2="860.0" y2="282.0" stroke="#e2c56a" stroke-width="1.6" stroke-linecap="round" /><circle cx="874" cy="172" r="6" fill="#f4a261"/><circle cx="874" cy="288" r="6" fill="#f4a261"/><line x1="874.0" y1="178.0" x2="874.0" y2="225.0" stroke="#e2c56a" stroke-width="1.6" stroke-linecap="round" /><line x1="874.0" y1="235.0" x2="874.0" y2="282.0" stroke="#e2c56a" stroke-width="1.6" stroke-linecap="round" /><circle cx="888" cy="172" r="6" fill="#f4a261"/><circle cx="888" cy="288" r="6" fill="#f4a261"/><line x1="888.0" y1="178.0" x2="888.0" y2="225.0" stroke="#e2c56a" stroke-width="1.6" stroke-linecap="round" /><line x1="888.0" y1="235.0" x2="888.0" y2="282.0" stroke="#e2c56a" stroke-width="1.6" stroke-linecap="round" /><circle cx="902" cy="172" r="6" fill="#f4a261"/><circle cx="902" cy="288" r="6" fill="#f4a261"/><line x1="902.0" y1="178.0" x2="902.0" y2="225.0" stroke="#e2c56a" stroke-width="1.6" stroke-linecap="round" /><line x1="902.0" y1="235.0" x2="902.0" y2="282.0" stroke="#e2c56a" stroke-width="1.6" stroke-linecap="round" /><circle cx="916" cy="172" r="6" fill="#f4a261"/><circle cx="916" cy="288" r="6" fill="#f4a261"/><line x1="916.0" y1="178.0" x2="916.0" y2="225.0" stroke="#e2c56a" stroke-width="1.6" stroke-linecap="round" /><line x1="916.0" y1="235.0" x2="916.0" y2="282.0" stroke="#e2c56a" stroke-width="1.6" stroke-linecap="round" /><circle cx="930" cy="172" r="6" fill="#f4a261"/><circle cx="930" cy="288" r="6" fill="#f4a261"/><line x1="930.0" y1="178.0" x2="930.0" y2="225.0" stroke="#e2c56a" stroke-width="1.6" stroke-linecap="round" /><line x1="930.0" y1="235.0" x2="930.0" y2="282.0" stroke="#e2c56a" stroke-width="1.6" stroke-linecap="round" /><circle cx="944" cy="172" r="6" fill="#f4a261"/><circle cx="944" cy="288" r="6" fill="#f4a261"/><line x1="944.0" y1="178.0" x2="944.0" y2="225.0" stroke="#e2c56a" stroke-width="1.6" stroke-linecap="round" /><line x1="944.0" y1="235.0" x2="944.0" y2="282.0" stroke="#e2c56a" stroke-width="1.6" stroke-linecap="round" /><circle cx="958" cy="172" r="6" fill="#f4a261"/><circle cx="958" cy="288" r="6" fill="#f4a261"/><line x1="958.0" y1="178.0" x2="958.0" y2="225.0" stroke="#e2c56a" stroke-width="1.6" stroke-linecap="round" /><line x1="958.0" y1="235.0" x2="958.0" y2="282.0" stroke="#e2c56a" stroke-width="1.6" stroke-linecap="round" /><circle cx="972" cy="172" r="6" fill="#f4a261"/><circle cx="972" cy="288" r="6" fill="#f4a261"/><line x1="972.0" y1="178.0" x2="972.0" y2="225.0" stroke="#e2c56a" stroke-width="1.6" stroke-linecap="round" /><line x1="972.0" y1="235.0" x2="972.0" y2="282.0" stroke="#e2c56a" stroke-width="1.6" stroke-linecap="round" /><circle cx="986" cy="172" r="6" fill="#f4a261"/><circle cx="986" cy="288" r="6" fill="#f4a261"/><line x1="986.0" y1="178.0" x2="986.0" y2="225.0" stroke="#e2c56a" stroke-width="1.6" stroke-linecap="round" /><line x1="986.0" y1="235.0" x2="986.0" y2="282.0" stroke="#e2c56a" stroke-width="1.6" stroke-linecap="round" /><circle cx="1000" cy="172" r="6" fill="#f4a261"/><circle cx="1000" cy="288" r="6" fill="#f4a261"/><line x1="1000.0" y1="178.0" x2="1000.0" y2="225.0" stroke="#e2c56a" stroke-width="1.6" stroke-linecap="round" /><line x1="1000.0" y1="235.0" x2="1000.0" y2="282.0" stroke="#e2c56a" stroke-width="1.6" stroke-linecap="round" /><circle cx="1014" cy="172" r="6" fill="#f4a261"/><circle cx="1014" cy="288" r="6" fill="#f4a261"/><line x1="1014.0" y1="178.0" x2="1014.0" y2="225.0" stroke="#e2c56a" stroke-width="1.6" stroke-linecap="round" /><line x1="1014.0" y1="235.0" x2="1014.0" y2="282.0" stroke="#e2c56a" stroke-width="1.6" stroke-linecap="round" /><circle cx="1028" cy="172" r="6" fill="#f4a261"/><circle cx="1028" cy="288" r="6" fill="#f4a261"/><line x1="1028.0" y1="178.0" x2="1028.0" y2="225.0" stroke="#e2c56a" stroke-width="1.6" stroke-linecap="round" /><line x1="1028.0" y1="235.0" x2="1028.0" y2="282.0" stroke="#e2c56a" stroke-width="1.6" stroke-linecap="round" /><circle cx="1042" cy="172" r="6" fill="#f4a261"/><circle cx="1042" cy="288" r="6" fill="#f4a261"/><line x1="1042.0" y1="178.0" x2="1042.0" y2="225.0" stroke="#e2c56a" stroke-width="1.6" stroke-linecap="round" /><line x1="1042.0" y1="235.0" x2="1042.0" y2="282.0" stroke="#e2c56a" stroke-width="1.6" stroke-linecap="round" /><circle cx="1056" cy="172" r="6" fill="#f4a261"/><circle cx="1056" cy="288" r="6" fill="#f4a261"/><line x1="1056.0" y1="178.0" x2="1056.0" y2="225.0" stroke="#e2c56a" stroke-width="1.6" stroke-linecap="round" /><line x1="1056.0" y1="235.0" x2="1056.0" y2="282.0" stroke="#e2c56a" stroke-width="1.6" stroke-linecap="round" /><circle cx="1070" cy="172" r="6" fill="#f4a261"/><circle cx="1070" cy="288" r="6" fill="#f4a261"/><line x1="1070.0" y1="178.0" x2="1070.0" y2="225.0" stroke="#e2c56a" stroke-width="1.6" stroke-linecap="round" /><line x1="1070.0" y1="235.0" x2="1070.0" y2="282.0" stroke="#e2c56a" stroke-width="1.6" stroke-linecap="round" /><text x="1070.0" y="236.0" font-size="13" text-anchor="end" font-weight="900" fill="#b5532c" >membrana interna</text>
<rect x="105.0" y="155.0" width="70" height="150" rx="16" fill="#b9d3ee" stroke="#0f4c81" stroke-width="2.5"/><text x="140.0" y="210.0" font-size="22" text-anchor="middle" font-weight="900" fill="#0f4c81" >I</text>
<rect x="295.0" y="165.0" width="70" height="130" rx="16" fill="#b9d3ee" stroke="#0f4c81" stroke-width="2.5"/><text x="330.0" y="210.0" font-size="22" text-anchor="middle" font-weight="900" fill="#0f4c81" >III</text>
<rect x="485.0" y="170.0" width="70" height="120" rx="16" fill="#b9d3ee" stroke="#0f4c81" stroke-width="2.5"/><text x="520.0" y="210.0" font-size="22" text-anchor="middle" font-weight="900" fill="#0f4c81" >IV</text>
<ellipse cx="236" cy="262" rx="20" ry="14" fill="#ffe08a" stroke="#c77d00" stroke-width="2"/><text x="236.0" y="267.0" font-size="13" text-anchor="middle" font-weight="900" fill="#8a5a00" >Q</text>
<ellipse cx="425" cy="160" rx="18" ry="13" fill="#f6c3b5" stroke="#c0392b" stroke-width="2"/><text x="425.0" y="165.0" font-size="13" text-anchor="middle" font-weight="900" fill="#c0392b" >c</text>
<path d="M140,270 C170,300 210,290 236,262 C262,240 300,250 330,240 C360,220 395,180 425,165 C455,175 490,210 520,240" fill="none" stroke="#6d3fc0" stroke-width="3.5" stroke-dasharray="7 5" marker-end="url(#fk)"/><text x="330.0" y="330.0" font-size="15" text-anchor="middle" font-weight="900" fill="#6d3fc0" >e⁻</text>
<rect x="86.0" y="366" width="48.0" height="28" rx="14" fill="#efe7fb" stroke="#6d3fc0" stroke-width="2"/><text x="110.0" y="385.0" font-size="13" text-anchor="middle" font-weight="900" fill="#6d3fc0" >NADH</text>
<line x1="118.0" y1="362.0" x2="136.0" y2="300.0" stroke="#6d3fc0" stroke-width="2.5" stroke-linecap="round" marker-end="url(#fk)"/><rect x="64.75" y="416" width="90.5" height="28" rx="14" fill="#fff" stroke="#6d3fc0" stroke-width="2"/><text x="110.0" y="435.0" font-size="13" text-anchor="middle" font-weight="900" fill="#6d3fc0" >NAD⁺ + H⁺</text>
<rect x="221.75" y="386" width="56.5" height="28" rx="14" fill="#efe7fb" stroke="#6d3fc0" stroke-width="2"/><text x="250.0" y="405.0" font-size="13" text-anchor="middle" font-weight="900" fill="#6d3fc0" >FADH₂</text>
<line x1="250.0" y1="384.0" x2="238.0" y2="280.0" stroke="#6d3fc0" stroke-width="2.5" stroke-linecap="round" marker-end="url(#fk)"/><text x="250.0" y="438.0" font-size="11" text-anchor="middle" font-weight="800" fill="#4c5b67" >(entra por el</text>
<text x="250.0" y="452.0" font-size="11" text-anchor="middle" font-weight="800" fill="#4c5b67" >complejo II)</text>
<rect x="466.25" y="386" width="107.5" height="28" rx="14" fill="#fde8e6" stroke="#c0392b" stroke-width="2"/><text x="520.0" y="405.0" font-size="13" text-anchor="middle" font-weight="900" fill="#c0392b" >½ O₂ + 2 H⁺</text>
<line x1="520.0" y1="384.0" x2="520.0" y2="300.0" stroke="#c0392b" stroke-width="2.5" stroke-linecap="round" marker-end="url(#fk)"/><rect x="500.25" y="436" width="39.5" height="28" rx="14" fill="#e3eef8" stroke="#0f4c81" stroke-width="2"/><text x="520.0" y="455.0" font-size="13" text-anchor="middle" font-weight="900" fill="#0f4c81" >H₂O</text>
<line x1="520.0" y1="414.0" x2="520.0" y2="434.0" stroke="#0f4c81" stroke-width="2" stroke-linecap="round" marker-end="url(#fk)"/><text x="520.0" y="490.0" font-size="12" text-anchor="middle" font-weight="900" fill="#c0392b" >aceptor final</text>
<line x1="140.0" y1="160.0" x2="140.0" y2="90.0" stroke="#c77d00" stroke-width="3" stroke-linecap="round" marker-end="url(#fk)"/><text x="156.0" y="112.0" font-size="15" text-anchor="start" font-weight="900" fill="#c77d00" >H⁺</text>
<line x1="330.0" y1="160.0" x2="330.0" y2="90.0" stroke="#c77d00" stroke-width="3" stroke-linecap="round" marker-end="url(#fk)"/><text x="346.0" y="112.0" font-size="15" text-anchor="start" font-weight="900" fill="#c77d00" >H⁺</text>
<line x1="520.0" y1="160.0" x2="520.0" y2="90.0" stroke="#c77d00" stroke-width="3" stroke-linecap="round" marker-end="url(#fk)"/><text x="536.0" y="112.0" font-size="15" text-anchor="start" font-weight="900" fill="#c77d00" >H⁺</text>
<text x="160.0" y="60.0" font-size="14" text-anchor="middle" font-weight="900" fill="#c77d00" >H⁺</text>
<text x="212.0" y="76.0" font-size="14" text-anchor="middle" font-weight="900" fill="#c77d00" >H⁺</text>
<text x="264.0" y="60.0" font-size="14" text-anchor="middle" font-weight="900" fill="#c77d00" >H⁺</text>
<text x="316.0" y="76.0" font-size="14" text-anchor="middle" font-weight="900" fill="#c77d00" >H⁺</text>
<text x="368.0" y="60.0" font-size="14" text-anchor="middle" font-weight="900" fill="#c77d00" >H⁺</text>
<text x="420.0" y="76.0" font-size="14" text-anchor="middle" font-weight="900" fill="#c77d00" >H⁺</text>
<text x="472.0" y="60.0" font-size="14" text-anchor="middle" font-weight="900" fill="#c77d00" >H⁺</text>
<text x="524.0" y="76.0" font-size="14" text-anchor="middle" font-weight="900" fill="#c77d00" >H⁺</text>
<text x="576.0" y="60.0" font-size="14" text-anchor="middle" font-weight="900" fill="#c77d00" >H⁺</text>
<text x="628.0" y="76.0" font-size="14" text-anchor="middle" font-weight="900" fill="#c77d00" >H⁺</text>
<text x="640.0" y="36.0" font-size="13" text-anchor="middle" font-weight="900" fill="#c77d00" >gradiente de protones (más H⁺ fuera)</text>
<rect x="800" y="160" width="40" height="140" rx="10" fill="#d9c8f5" stroke="#6d3fc0" stroke-width="2.5"/><rect x="812" y="300" width="16" height="50" fill="#d9c8f5" stroke="#6d3fc0" stroke-width="2"/><circle cx="820" cy="385" r="40" fill="#d9c8f5" stroke="#6d3fc0" stroke-width="2.5"/><text x="820.0" y="381.0" font-size="13" text-anchor="middle" font-weight="900" fill="#6d3fc0" >ATP</text>
<text x="820.0" y="397.0" font-size="13" text-anchor="middle" font-weight="900" fill="#6d3fc0" >sintasa</text>
<line x1="820.0" y1="70.0" x2="820.0" y2="330.0" stroke="#c77d00" stroke-width="3.5" stroke-linecap="round" marker-end="url(#fk)"/><text x="834.0" y="90.0" font-size="15" text-anchor="start" font-weight="900" fill="#c77d00" >H⁺</text>
<rect x="939.0" y="356" width="82.0" height="28" rx="14" fill="#fff" stroke="#c77d00" stroke-width="2"/><text x="980.0" y="375.0" font-size="13" text-anchor="middle" font-weight="900" fill="#c77d00" >ADP + Pi</text>
<line x1="935.0" y1="380.0" x2="866.0" y2="385.0" stroke="#c77d00" stroke-width="2" stroke-linecap="round" marker-end="url(#fk)"/><line x1="854.0" y1="410.0" x2="930.0" y2="440.0" stroke="#c77d00" stroke-width="2.5" stroke-linecap="round" marker-end="url(#fk)"/><rect x="950.25" y="436" width="39.5" height="28" rx="14" fill="#fff4df" stroke="#c77d00" stroke-width="2"/><text x="970.0" y="455.0" font-size="13" text-anchor="middle" font-weight="900" fill="#c77d00" >ATP</text>
<text x="330.0" y="525.0" font-size="15" text-anchor="middle" font-weight="900" fill="#0f4c81" >CADENA DE TRANSPORTE DE ELECTRONES</text>
<text x="820.0" y="525.0" font-size="15" text-anchor="middle" font-weight="900" fill="#6d3fc0" >FOSFORILACIÓN OXIDATIVA</text>
</svg>
