<svg xmlns="http://www.w3.org/2000/svg" viewBox="0 0 1060 500" role="img" font-family="Nunito, 'Segoe UI', system-ui, sans-serif"><title>Maltosa, celobiosa, lactosa y sacarosa con sus enlaces O-glucosídicos</title>
<defs><marker id="fl" viewBox="0 0 10 10" refX="8" refY="5" markerWidth="7" markerHeight="7" orient="auto-start-reverse"><path d="M0,0 L10,5 L0,10 z" fill="#2a7fc1"/></marker><marker id="fk" viewBox="0 0 10 10" refX="8" refY="5" markerWidth="7" markerHeight="7" orient="auto-start-reverse"><path d="M0,0 L10,5 L0,10 z" fill="#22313f"/></marker><radialGradient id="gO" cx="35%" cy="35%" r="70%"><stop offset="0" stop-color="#f08a7e"/><stop offset="1" stop-color="#c0392b"/></radialGradient><radialGradient id="gH" cx="35%" cy="35%" r="70%"><stop offset="0" stop-color="#ffffff"/><stop offset="1" stop-color="#d5dde3"/></radialGradient></defs>
<line x1="124.0" y1="86.2" x2="153.8" y2="110.0" stroke="#22313f" stroke-width="2.6" stroke-linecap="round" /><line x1="153.8" y1="110.0" x2="124.0" y2="133.8" stroke="#22313f" stroke-width="6.5" stroke-linecap="round" /><line x1="124.0" y1="133.8" x2="56.0" y2="133.8" stroke="#22313f" stroke-width="6.5" stroke-linecap="round" /><line x1="56.0" y1="133.8" x2="26.2" y2="110.0" stroke="#22313f" stroke-width="6.5" stroke-linecap="round" /><line x1="26.2" y1="110.0" x2="56.0" y2="86.2" stroke="#22313f" stroke-width="2.6" stroke-linecap="round" /><line x1="56.0" y1="86.2" x2="124.0" y2="86.2" stroke="#22313f" stroke-width="2.6" stroke-linecap="round" /><circle cx="124.0" cy="86.2" r="9.3" fill="#fff"/><text x="124.0" y="91.3" font-size="14.45" text-anchor="middle" font-weight="900" fill="#c0392b" >O</text>
<line x1="124.0" y1="133.8" x2="124.0" y2="155.1" stroke="#22313f" stroke-width="2.2" stroke-linecap="round" /><text x="124.0" y="168.6" font-size="11.9" text-anchor="middle" font-weight="800" fill="#c0392b" >OH</text>
<line x1="56.0" y1="133.8" x2="56.0" y2="112.6" stroke="#22313f" stroke-width="2.2" stroke-linecap="round" /><text x="56.0" y="107.4" font-size="11.9" text-anchor="middle" font-weight="800" fill="#c0392b" >OH</text>
<line x1="26.2" y1="110.0" x2="26.2" y2="131.2" stroke="#22313f" stroke-width="2.2" stroke-linecap="round" /><text x="23.7" y="144.8" font-size="11.9" text-anchor="end" font-weight="800" fill="#c0392b" >OH</text>
<line x1="56.0" y1="86.2" x2="56.0" y2="65.0" stroke="#22313f" stroke-width="2.2" stroke-linecap="round" /><text x="56.0" y="59.8" font-size="11.9" text-anchor="middle" font-weight="800" fill="#22313f" >CH₂OH</text>
<line x1="294.0" y1="86.2" x2="323.8" y2="110.0" stroke="#22313f" stroke-width="2.6" stroke-linecap="round" /><line x1="323.8" y1="110.0" x2="294.0" y2="133.8" stroke="#22313f" stroke-width="6.5" stroke-linecap="round" /><line x1="294.0" y1="133.8" x2="226.0" y2="133.8" stroke="#22313f" stroke-width="6.5" stroke-linecap="round" /><line x1="226.0" y1="133.8" x2="196.2" y2="110.0" stroke="#22313f" stroke-width="6.5" stroke-linecap="round" /><line x1="196.2" y1="110.0" x2="226.0" y2="86.2" stroke="#22313f" stroke-width="2.6" stroke-linecap="round" /><line x1="226.0" y1="86.2" x2="294.0" y2="86.2" stroke="#22313f" stroke-width="2.6" stroke-linecap="round" /><circle cx="294.0" cy="86.2" r="9.3" fill="#fff"/><text x="294.0" y="91.3" font-size="14.45" text-anchor="middle" font-weight="900" fill="#c0392b" >O</text>
<line x1="323.8" y1="110.0" x2="323.8" y2="131.2" stroke="#22313f" stroke-width="2.2" stroke-linecap="round" /><text x="326.3" y="144.8" font-size="11.9" text-anchor="start" font-weight="800" fill="#c0392b" >OH</text>
<line x1="294.0" y1="133.8" x2="294.0" y2="155.1" stroke="#22313f" stroke-width="2.2" stroke-linecap="round" /><text x="294.0" y="168.6" font-size="11.9" text-anchor="middle" font-weight="800" fill="#c0392b" >OH</text>
<line x1="226.0" y1="133.8" x2="226.0" y2="112.6" stroke="#22313f" stroke-width="2.2" stroke-linecap="round" /><text x="226.0" y="107.4" font-size="11.9" text-anchor="middle" font-weight="800" fill="#c0392b" >OH</text>
<line x1="226.0" y1="86.2" x2="226.0" y2="65.0" stroke="#22313f" stroke-width="2.2" stroke-linecap="round" /><text x="226.0" y="59.8" font-size="11.9" text-anchor="middle" font-weight="800" fill="#22313f" >CH₂OH</text>
<line x1="153.8" y1="110.0" x2="175.0" y2="138.9" stroke="#22313f" stroke-width="2.4" stroke-linecap="round" /><line x1="175.0" y1="138.9" x2="196.2" y2="110.0" stroke="#22313f" stroke-width="2.4" stroke-linecap="round" /><circle cx="175.0" cy="138.9" r="11" fill="#fff"/><text x="175.0" y="144.9" font-size="17" text-anchor="middle" font-weight="900" fill="#c0392b" >O</text>
<text x="175.0" y="215.0" font-size="19" text-anchor="middle" font-weight="900" fill="#0f4c81" >Maltosa</text>
<text x="175.0" y="236.0" font-size="14" text-anchor="middle" font-weight="700" fill="#4c5b67" >Glc α(1→4) Glc · reductora</text>
<text x="175.0" y="168.9" font-size="13" text-anchor="middle" font-weight="900" fill="#c77d00" >α(1→4)</text>
<line x1="564.0" y1="86.2" x2="593.8" y2="110.0" stroke="#22313f" stroke-width="2.6" stroke-linecap="round" /><line x1="593.8" y1="110.0" x2="564.0" y2="133.8" stroke="#22313f" stroke-width="6.5" stroke-linecap="round" /><line x1="564.0" y1="133.8" x2="496.0" y2="133.8" stroke="#22313f" stroke-width="6.5" stroke-linecap="round" /><line x1="496.0" y1="133.8" x2="466.2" y2="110.0" stroke="#22313f" stroke-width="6.5" stroke-linecap="round" /><line x1="466.2" y1="110.0" x2="496.0" y2="86.2" stroke="#22313f" stroke-width="2.6" stroke-linecap="round" /><line x1="496.0" y1="86.2" x2="564.0" y2="86.2" stroke="#22313f" stroke-width="2.6" stroke-linecap="round" /><circle cx="564.0" cy="86.2" r="9.3" fill="#fff"/><text x="564.0" y="91.3" font-size="14.45" text-anchor="middle" font-weight="900" fill="#c0392b" >O</text>
<line x1="564.0" y1="133.8" x2="564.0" y2="155.1" stroke="#22313f" stroke-width="2.2" stroke-linecap="round" /><text x="564.0" y="168.6" font-size="11.9" text-anchor="middle" font-weight="800" fill="#c0392b" >OH</text>
<line x1="496.0" y1="133.8" x2="496.0" y2="112.6" stroke="#22313f" stroke-width="2.2" stroke-linecap="round" /><text x="496.0" y="107.4" font-size="11.9" text-anchor="middle" font-weight="800" fill="#c0392b" >OH</text>
<line x1="466.2" y1="110.0" x2="466.2" y2="131.2" stroke="#22313f" stroke-width="2.2" stroke-linecap="round" /><text x="463.7" y="144.8" font-size="11.9" text-anchor="end" font-weight="800" fill="#c0392b" >OH</text>
<line x1="496.0" y1="86.2" x2="496.0" y2="65.0" stroke="#22313f" stroke-width="2.2" stroke-linecap="round" /><text x="496.0" y="59.8" font-size="11.9" text-anchor="middle" font-weight="800" fill="#22313f" >CH₂OH</text>
<line x1="734.0" y1="86.2" x2="763.8" y2="110.0" stroke="#22313f" stroke-width="2.6" stroke-linecap="round" /><line x1="763.8" y1="110.0" x2="734.0" y2="133.8" stroke="#22313f" stroke-width="6.5" stroke-linecap="round" /><line x1="734.0" y1="133.8" x2="666.0" y2="133.8" stroke="#22313f" stroke-width="6.5" stroke-linecap="round" /><line x1="666.0" y1="133.8" x2="636.2" y2="110.0" stroke="#22313f" stroke-width="6.5" stroke-linecap="round" /><line x1="636.2" y1="110.0" x2="666.0" y2="86.2" stroke="#22313f" stroke-width="2.6" stroke-linecap="round" /><line x1="666.0" y1="86.2" x2="734.0" y2="86.2" stroke="#22313f" stroke-width="2.6" stroke-linecap="round" /><circle cx="734.0" cy="86.2" r="9.3" fill="#fff"/><text x="734.0" y="91.3" font-size="14.45" text-anchor="middle" font-weight="900" fill="#c0392b" >O</text>
<line x1="763.8" y1="110.0" x2="763.8" y2="131.2" stroke="#22313f" stroke-width="2.2" stroke-linecap="round" /><text x="766.3" y="144.8" font-size="11.9" text-anchor="start" font-weight="800" fill="#c0392b" >OH</text>
<line x1="734.0" y1="133.8" x2="734.0" y2="155.1" stroke="#22313f" stroke-width="2.2" stroke-linecap="round" /><text x="734.0" y="168.6" font-size="11.9" text-anchor="middle" font-weight="800" fill="#c0392b" >OH</text>
<line x1="666.0" y1="133.8" x2="666.0" y2="112.6" stroke="#22313f" stroke-width="2.2" stroke-linecap="round" /><text x="666.0" y="107.4" font-size="11.9" text-anchor="middle" font-weight="800" fill="#c0392b" >OH</text>
<line x1="666.0" y1="86.2" x2="666.0" y2="65.0" stroke="#22313f" stroke-width="2.2" stroke-linecap="round" /><text x="666.0" y="59.8" font-size="11.9" text-anchor="middle" font-weight="800" fill="#22313f" >CH₂OH</text>
<line x1="593.8" y1="110.0" x2="615.0" y2="81.1" stroke="#22313f" stroke-width="2.4" stroke-linecap="round" /><line x1="615.0" y1="81.1" x2="636.2" y2="110.0" stroke="#22313f" stroke-width="2.4" stroke-linecap="round" /><circle cx="615.0" cy="81.1" r="11" fill="#fff"/><text x="615.0" y="87.1" font-size="17" text-anchor="middle" font-weight="900" fill="#c0392b" >O</text>
<text x="615.0" y="215.0" font-size="19" text-anchor="middle" font-weight="900" fill="#0f4c81" >Celobiosa</text>
<text x="615.0" y="236.0" font-size="14" text-anchor="middle" font-weight="700" fill="#4c5b67" >Glc β(1→4) Glc · reductora</text>
<text x="615.0" y="63.1" font-size="13" text-anchor="middle" font-weight="900" fill="#c77d00" >β(1→4)</text>
<line x1="124.0" y1="326.2" x2="153.8" y2="350.0" stroke="#22313f" stroke-width="2.6" stroke-linecap="round" /><line x1="153.8" y1="350.0" x2="124.0" y2="373.8" stroke="#22313f" stroke-width="6.5" stroke-linecap="round" /><line x1="124.0" y1="373.8" x2="56.0" y2="373.8" stroke="#22313f" stroke-width="6.5" stroke-linecap="round" /><line x1="56.0" y1="373.8" x2="26.2" y2="350.0" stroke="#22313f" stroke-width="6.5" stroke-linecap="round" /><line x1="26.2" y1="350.0" x2="56.0" y2="326.2" stroke="#22313f" stroke-width="2.6" stroke-linecap="round" /><line x1="56.0" y1="326.2" x2="124.0" y2="326.2" stroke="#22313f" stroke-width="2.6" stroke-linecap="round" /><circle cx="124.0" cy="326.2" r="9.3" fill="#fff"/><text x="124.0" y="331.3" font-size="14.45" text-anchor="middle" font-weight="900" fill="#c0392b" >O</text>
<line x1="124.0" y1="373.8" x2="124.0" y2="395.1" stroke="#22313f" stroke-width="2.2" stroke-linecap="round" /><text x="124.0" y="408.6" font-size="11.9" text-anchor="middle" font-weight="800" fill="#c0392b" >OH</text>
<line x1="56.0" y1="373.8" x2="56.0" y2="352.6" stroke="#22313f" stroke-width="2.2" stroke-linecap="round" /><text x="56.0" y="347.4" font-size="11.9" text-anchor="middle" font-weight="800" fill="#c0392b" >OH</text>
<line x1="26.2" y1="350.0" x2="26.2" y2="328.8" stroke="#22313f" stroke-width="2.2" stroke-linecap="round" /><text x="23.7" y="323.6" font-size="11.9" text-anchor="end" font-weight="800" fill="#c0392b" >OH</text>
<line x1="56.0" y1="326.2" x2="56.0" y2="304.9" stroke="#22313f" stroke-width="2.2" stroke-linecap="round" /><text x="56.0" y="299.8" font-size="11.9" text-anchor="middle" font-weight="800" fill="#22313f" >CH₂OH</text>
<line x1="294.0" y1="326.2" x2="323.8" y2="350.0" stroke="#22313f" stroke-width="2.6" stroke-linecap="round" /><line x1="323.8" y1="350.0" x2="294.0" y2="373.8" stroke="#22313f" stroke-width="6.5" stroke-linecap="round" /><line x1="294.0" y1="373.8" x2="226.0" y2="373.8" stroke="#22313f" stroke-width="6.5" stroke-linecap="round" /><line x1="226.0" y1="373.8" x2="196.2" y2="350.0" stroke="#22313f" stroke-width="6.5" stroke-linecap="round" /><line x1="196.2" y1="350.0" x2="226.0" y2="326.2" stroke="#22313f" stroke-width="2.6" stroke-linecap="round" /><line x1="226.0" y1="326.2" x2="294.0" y2="326.2" stroke="#22313f" stroke-width="2.6" stroke-linecap="round" /><circle cx="294.0" cy="326.2" r="9.3" fill="#fff"/><text x="294.0" y="331.3" font-size="14.45" text-anchor="middle" font-weight="900" fill="#c0392b" >O</text>
<line x1="323.8" y1="350.0" x2="323.8" y2="371.2" stroke="#22313f" stroke-width="2.2" stroke-linecap="round" /><text x="326.3" y="384.8" font-size="11.9" text-anchor="start" font-weight="800" fill="#c0392b" >OH</text>
<line x1="294.0" y1="373.8" x2="294.0" y2="395.1" stroke="#22313f" stroke-width="2.2" stroke-linecap="round" /><text x="294.0" y="408.6" font-size="11.9" text-anchor="middle" font-weight="800" fill="#c0392b" >OH</text>
<line x1="226.0" y1="373.8" x2="226.0" y2="352.6" stroke="#22313f" stroke-width="2.2" stroke-linecap="round" /><text x="226.0" y="347.4" font-size="11.9" text-anchor="middle" font-weight="800" fill="#c0392b" >OH</text>
<line x1="226.0" y1="326.2" x2="226.0" y2="304.9" stroke="#22313f" stroke-width="2.2" stroke-linecap="round" /><text x="226.0" y="299.8" font-size="11.9" text-anchor="middle" font-weight="800" fill="#22313f" >CH₂OH</text>
<line x1="153.8" y1="350.0" x2="175.0" y2="321.1" stroke="#22313f" stroke-width="2.4" stroke-linecap="round" /><line x1="175.0" y1="321.1" x2="196.2" y2="350.0" stroke="#22313f" stroke-width="2.4" stroke-linecap="round" /><circle cx="175.0" cy="321.1" r="11" fill="#fff"/><text x="175.0" y="327.1" font-size="17" text-anchor="middle" font-weight="900" fill="#c0392b" >O</text>
<text x="175.0" y="455.0" font-size="19" text-anchor="middle" font-weight="900" fill="#0f4c81" >Lactosa</text>
<text x="175.0" y="476.0" font-size="14" text-anchor="middle" font-weight="700" fill="#4c5b67" >Gal β(1→4) Glc · reductora</text>
<text x="175.0" y="303.1" font-size="13" text-anchor="middle" font-weight="900" fill="#c77d00" >β(1→4)</text>
<line x1="594.0" y1="306.2" x2="623.8" y2="330.0" stroke="#22313f" stroke-width="2.6" stroke-linecap="round" /><line x1="623.8" y1="330.0" x2="594.0" y2="353.8" stroke="#22313f" stroke-width="6.5" stroke-linecap="round" /><line x1="594.0" y1="353.8" x2="526.0" y2="353.8" stroke="#22313f" stroke-width="6.5" stroke-linecap="round" /><line x1="526.0" y1="353.8" x2="496.2" y2="330.0" stroke="#22313f" stroke-width="6.5" stroke-linecap="round" /><line x1="496.2" y1="330.0" x2="526.0" y2="306.2" stroke="#22313f" stroke-width="2.6" stroke-linecap="round" /><line x1="526.0" y1="306.2" x2="594.0" y2="306.2" stroke="#22313f" stroke-width="2.6" stroke-linecap="round" /><circle cx="594.0" cy="306.2" r="9.3" fill="#fff"/><text x="594.0" y="311.3" font-size="14.45" text-anchor="middle" font-weight="900" fill="#c0392b" >O</text>
<line x1="594.0" y1="353.8" x2="594.0" y2="375.1" stroke="#22313f" stroke-width="2.2" stroke-linecap="round" /><text x="594.0" y="388.6" font-size="11.9" text-anchor="middle" font-weight="800" fill="#c0392b" >OH</text>
<line x1="526.0" y1="353.8" x2="526.0" y2="332.6" stroke="#22313f" stroke-width="2.2" stroke-linecap="round" /><text x="526.0" y="327.4" font-size="11.9" text-anchor="middle" font-weight="800" fill="#c0392b" >OH</text>
<line x1="496.2" y1="330.0" x2="496.2" y2="351.2" stroke="#22313f" stroke-width="2.2" stroke-linecap="round" /><text x="493.7" y="364.8" font-size="11.9" text-anchor="end" font-weight="800" fill="#c0392b" >OH</text>
<line x1="526.0" y1="306.2" x2="526.0" y2="284.9" stroke="#22313f" stroke-width="2.2" stroke-linecap="round" /><text x="526.0" y="279.8" font-size="11.9" text-anchor="middle" font-weight="800" fill="#22313f" >CH₂OH</text>
<line x1="700.0" y1="447.2" x2="647.3" y2="426.8" stroke="#22313f" stroke-width="6.5" stroke-linecap="round" /><line x1="647.3" y1="426.8" x2="667.7" y2="394.5" stroke="#22313f" stroke-width="2.6" stroke-linecap="round" /><line x1="667.7" y1="394.5" x2="732.3" y2="394.5" stroke="#22313f" stroke-width="2.6" stroke-linecap="round" /><line x1="732.3" y1="394.5" x2="752.7" y2="426.8" stroke="#22313f" stroke-width="2.6" stroke-linecap="round" /><line x1="752.7" y1="426.8" x2="700.0" y2="447.2" stroke="#22313f" stroke-width="6.5" stroke-linecap="round" /><circle cx="700.0" cy="447.2" r="9.3" fill="#fff"/><text x="700.0" y="452.3" font-size="14.45" text-anchor="middle" font-weight="900" fill="#c0392b" >O</text>
<line x1="647.3" y1="426.8" x2="647.3" y2="448.1" stroke="#22313f" stroke-width="2.2" stroke-linecap="round" /><text x="644.8" y="461.6" font-size="11.9" text-anchor="end" font-weight="800" fill="#22313f" >CH₂OH</text>
<line x1="667.7" y1="394.5" x2="667.7" y2="373.2" stroke="#22313f" stroke-width="2.2" stroke-linecap="round" /><text x="667.7" y="368.1" font-size="11.9" text-anchor="middle" font-weight="800" fill="#c0392b" >OH</text>
<line x1="732.3" y1="394.5" x2="732.3" y2="415.8" stroke="#22313f" stroke-width="2.2" stroke-linecap="round" /><text x="732.3" y="429.3" font-size="11.9" text-anchor="middle" font-weight="800" fill="#c0392b" >OH</text>
<line x1="752.7" y1="426.8" x2="752.7" y2="405.6" stroke="#22313f" stroke-width="2.2" stroke-linecap="round" /><text x="755.2" y="400.4" font-size="11.9" text-anchor="start" font-weight="800" fill="#22313f" >CH₂OH</text>
<line x1="623.8" y1="330.0" x2="633.8" y2="372.0" stroke="#22313f" stroke-width="2.4" stroke-linecap="round" /><line x1="633.8" y1="372.0" x2="647.3" y2="426.8" stroke="#22313f" stroke-width="2.4" stroke-linecap="round" /><circle cx="633.75" cy="372.0" r="11" fill="#fff"/><text x="633.8" y="378.0" font-size="17" text-anchor="middle" font-weight="900" fill="#c0392b" >O</text>
<text x="860.0" y="330.0" font-size="19" text-anchor="start" font-weight="900" fill="#0f4c81" >Sacarosa</text>
<text x="860.0" y="351.0" font-size="14" text-anchor="start" font-weight="700" fill="#4c5b67" >Glc α(1→2)β Fru</text>
<text x="860.0" y="371.0" font-size="14" text-anchor="start" font-weight="700" fill="#4c5b67" >no reductora: une los</text>
<text x="860.0" y="389.0" font-size="14" text-anchor="start" font-weight="700" fill="#4c5b67" >dos C anoméricos</text>
</svg>
