<svg xmlns="http://www.w3.org/2000/svg" viewBox="0 0 1180 360" role="img" font-family="Nunito, 'Segoe UI', system-ui, sans-serif"><title>Proyecciones de Fischer del gliceraldehído, la dihidroxiacetona, la ribosa, la desoxirribosa, la glucosa, la galactosa y la fructosa</title>
<defs><marker id="fl" viewBox="0 0 10 10" refX="8" refY="5" markerWidth="7" markerHeight="7" orient="auto-start-reverse"><path d="M0,0 L10,5 L0,10 z" fill="#2a7fc1"/></marker><marker id="fk" viewBox="0 0 10 10" refX="8" refY="5" markerWidth="7" markerHeight="7" orient="auto-start-reverse"><path d="M0,0 L10,5 L0,10 z" fill="#22313f"/></marker><radialGradient id="gO" cx="35%" cy="35%" r="70%"><stop offset="0" stop-color="#f08a7e"/><stop offset="1" stop-color="#c0392b"/></radialGradient><radialGradient id="gH" cx="35%" cy="35%" r="70%"><stop offset="0" stop-color="#ffffff"/><stop offset="1" stop-color="#d5dde3"/></radialGradient></defs>
<text x="90.0" y="46.0" font-size="17" text-anchor="middle" font-weight="800" fill="#22313f" >CHO</text>
<line x1="90.0" y1="52.0" x2="90.0" y2="72.0" stroke="#22313f" stroke-width="2.4" stroke-linecap="round" /><text x="90.0" y="88.0" font-size="17" text-anchor="middle" font-weight="900" fill="#22313f" >C</text>
<line x1="79.0" y1="82.0" x2="56.0" y2="82.0" stroke="#22313f" stroke-width="2.2" stroke-linecap="round" /><line x1="101.0" y1="82.0" x2="124.0" y2="82.0" stroke="#22313f" stroke-width="2.2" stroke-linecap="round" /><text x="50.0" y="88.0" font-size="17" text-anchor="end" font-weight="800" fill="#22313f" >H</text>
<text x="130.0" y="88.0" font-size="17" text-anchor="start" font-weight="800" fill="#c0392b" >OH</text>
<line x1="90.0" y1="94.0" x2="90.0" y2="114.0" stroke="#22313f" stroke-width="2.4" stroke-linecap="round" /><text x="90.0" y="129.9" font-size="17" text-anchor="middle" font-weight="800" fill="#22313f" >CH₂OH</text>
<text x="90.0" y="160.0" font-size="17" text-anchor="middle" font-weight="900" fill="#0f4c81" >D-gliceraldehído</text>
<text x="90.0" y="180.0" font-size="13" text-anchor="middle" font-weight="700" fill="#4c5b67" >aldotriosa</text>
<text x="255.0" y="46.0" font-size="17" text-anchor="middle" font-weight="800" fill="#22313f" >CH₂OH</text>
<line x1="255.0" y1="52.0" x2="255.0" y2="72.0" stroke="#22313f" stroke-width="2.4" stroke-linecap="round" /><text x="255.0" y="88.0" font-size="17" text-anchor="middle" font-weight="900" fill="#22313f" >C</text>
<line x1="266" y1="79" x2="289" y2="79" stroke="#22313f" stroke-width="2.2"/><line x1="266" y1="85" x2="289" y2="85" stroke="#22313f" stroke-width="2.2"/><text x="305.0" y="88.0" font-size="17" text-anchor="middle" font-weight="800" fill="#c0392b" >O</text>
<line x1="255.0" y1="94.0" x2="255.0" y2="114.0" stroke="#22313f" stroke-width="2.4" stroke-linecap="round" /><text x="255.0" y="129.9" font-size="17" text-anchor="middle" font-weight="800" fill="#22313f" >CH₂OH</text>
<text x="255.0" y="160.0" font-size="17" text-anchor="middle" font-weight="900" fill="#0f4c81" >Dihidroxiacetona</text>
<text x="255.0" y="180.0" font-size="13" text-anchor="middle" font-weight="700" fill="#4c5b67" >cetotriosa</text>
<text x="420.0" y="46.0" font-size="17" text-anchor="middle" font-weight="800" fill="#22313f" >CHO</text>
<line x1="420.0" y1="52.0" x2="420.0" y2="72.0" stroke="#22313f" stroke-width="2.4" stroke-linecap="round" /><text x="420.0" y="88.0" font-size="17" text-anchor="middle" font-weight="900" fill="#22313f" >C</text>
<line x1="409.0" y1="82.0" x2="386.0" y2="82.0" stroke="#22313f" stroke-width="2.2" stroke-linecap="round" /><line x1="431.0" y1="82.0" x2="454.0" y2="82.0" stroke="#22313f" stroke-width="2.2" stroke-linecap="round" /><text x="380.0" y="88.0" font-size="17" text-anchor="end" font-weight="800" fill="#22313f" >H</text>
<text x="460.0" y="88.0" font-size="17" text-anchor="start" font-weight="800" fill="#c0392b" >OH</text>
<line x1="420.0" y1="94.0" x2="420.0" y2="114.0" stroke="#22313f" stroke-width="2.4" stroke-linecap="round" /><text x="420.0" y="130.0" font-size="17" text-anchor="middle" font-weight="900" fill="#22313f" >C</text>
<line x1="409.0" y1="124.0" x2="386.0" y2="124.0" stroke="#22313f" stroke-width="2.2" stroke-linecap="round" /><line x1="431.0" y1="124.0" x2="454.0" y2="124.0" stroke="#22313f" stroke-width="2.2" stroke-linecap="round" /><text x="380.0" y="129.9" font-size="17" text-anchor="end" font-weight="800" fill="#22313f" >H</text>
<text x="460.0" y="129.9" font-size="17" text-anchor="start" font-weight="800" fill="#c0392b" >OH</text>
<line x1="420.0" y1="136.0" x2="420.0" y2="156.0" stroke="#22313f" stroke-width="2.4" stroke-linecap="round" /><text x="420.0" y="172.0" font-size="17" text-anchor="middle" font-weight="900" fill="#22313f" >C</text>
<line x1="409.0" y1="166.0" x2="386.0" y2="166.0" stroke="#22313f" stroke-width="2.2" stroke-linecap="round" /><line x1="431.0" y1="166.0" x2="454.0" y2="166.0" stroke="#22313f" stroke-width="2.2" stroke-linecap="round" /><text x="380.0" y="171.9" font-size="17" text-anchor="end" font-weight="800" fill="#22313f" >H</text>
<text x="460.0" y="171.9" font-size="17" text-anchor="start" font-weight="800" fill="#c0392b" >OH</text>
<line x1="420.0" y1="178.0" x2="420.0" y2="198.0" stroke="#22313f" stroke-width="2.4" stroke-linecap="round" /><text x="420.0" y="213.9" font-size="17" text-anchor="middle" font-weight="800" fill="#22313f" >CH₂OH</text>
<text x="420.0" y="244.0" font-size="17" text-anchor="middle" font-weight="900" fill="#0f4c81" >D-ribosa</text>
<text x="420.0" y="264.0" font-size="13" text-anchor="middle" font-weight="700" fill="#4c5b67" >aldopentosa</text>
<text x="585.0" y="46.0" font-size="17" text-anchor="middle" font-weight="800" fill="#22313f" >CHO</text>
<line x1="585.0" y1="52.0" x2="585.0" y2="72.0" stroke="#22313f" stroke-width="2.4" stroke-linecap="round" /><text x="585.0" y="88.0" font-size="17" text-anchor="middle" font-weight="900" fill="#22313f" >C</text>
<line x1="574.0" y1="82.0" x2="551.0" y2="82.0" stroke="#22313f" stroke-width="2.2" stroke-linecap="round" /><line x1="596.0" y1="82.0" x2="619.0" y2="82.0" stroke="#22313f" stroke-width="2.2" stroke-linecap="round" /><text x="545.0" y="88.0" font-size="17" text-anchor="end" font-weight="800" fill="#22313f" >H</text>
<text x="625.0" y="88.0" font-size="17" text-anchor="start" font-weight="800" fill="#22313f" >H</text>
<line x1="585.0" y1="94.0" x2="585.0" y2="114.0" stroke="#22313f" stroke-width="2.4" stroke-linecap="round" /><text x="585.0" y="130.0" font-size="17" text-anchor="middle" font-weight="900" fill="#22313f" >C</text>
<line x1="574.0" y1="124.0" x2="551.0" y2="124.0" stroke="#22313f" stroke-width="2.2" stroke-linecap="round" /><line x1="596.0" y1="124.0" x2="619.0" y2="124.0" stroke="#22313f" stroke-width="2.2" stroke-linecap="round" /><text x="545.0" y="129.9" font-size="17" text-anchor="end" font-weight="800" fill="#22313f" >H</text>
<text x="625.0" y="129.9" font-size="17" text-anchor="start" font-weight="800" fill="#c0392b" >OH</text>
<line x1="585.0" y1="136.0" x2="585.0" y2="156.0" stroke="#22313f" stroke-width="2.4" stroke-linecap="round" /><text x="585.0" y="172.0" font-size="17" text-anchor="middle" font-weight="900" fill="#22313f" >C</text>
<line x1="574.0" y1="166.0" x2="551.0" y2="166.0" stroke="#22313f" stroke-width="2.2" stroke-linecap="round" /><line x1="596.0" y1="166.0" x2="619.0" y2="166.0" stroke="#22313f" stroke-width="2.2" stroke-linecap="round" /><text x="545.0" y="171.9" font-size="17" text-anchor="end" font-weight="800" fill="#22313f" >H</text>
<text x="625.0" y="171.9" font-size="17" text-anchor="start" font-weight="800" fill="#c0392b" >OH</text>
<line x1="585.0" y1="178.0" x2="585.0" y2="198.0" stroke="#22313f" stroke-width="2.4" stroke-linecap="round" /><text x="585.0" y="213.9" font-size="17" text-anchor="middle" font-weight="800" fill="#22313f" >CH₂OH</text>
<text x="585.0" y="244.0" font-size="17" text-anchor="middle" font-weight="900" fill="#0f4c81" >D-desoxirribosa</text>
<text x="585.0" y="264.0" font-size="13" text-anchor="middle" font-weight="700" fill="#4c5b67" >2-desoxialdopentosa</text>
<text x="750.0" y="46.0" font-size="17" text-anchor="middle" font-weight="800" fill="#22313f" >CHO</text>
<line x1="750.0" y1="52.0" x2="750.0" y2="72.0" stroke="#22313f" stroke-width="2.4" stroke-linecap="round" /><text x="750.0" y="88.0" font-size="17" text-anchor="middle" font-weight="900" fill="#22313f" >C</text>
<line x1="739.0" y1="82.0" x2="716.0" y2="82.0" stroke="#22313f" stroke-width="2.2" stroke-linecap="round" /><line x1="761.0" y1="82.0" x2="784.0" y2="82.0" stroke="#22313f" stroke-width="2.2" stroke-linecap="round" /><text x="710.0" y="88.0" font-size="17" text-anchor="end" font-weight="800" fill="#22313f" >H</text>
<text x="790.0" y="88.0" font-size="17" text-anchor="start" font-weight="800" fill="#c0392b" >OH</text>
<line x1="750.0" y1="94.0" x2="750.0" y2="114.0" stroke="#22313f" stroke-width="2.4" stroke-linecap="round" /><text x="750.0" y="130.0" font-size="17" text-anchor="middle" font-weight="900" fill="#22313f" >C</text>
<line x1="739.0" y1="124.0" x2="716.0" y2="124.0" stroke="#22313f" stroke-width="2.2" stroke-linecap="round" /><line x1="761.0" y1="124.0" x2="784.0" y2="124.0" stroke="#22313f" stroke-width="2.2" stroke-linecap="round" /><text x="710.0" y="129.9" font-size="17" text-anchor="end" font-weight="800" fill="#22313f" >HO</text>
<text x="790.0" y="129.9" font-size="17" text-anchor="start" font-weight="800" fill="#22313f" >H</text>
<line x1="750.0" y1="136.0" x2="750.0" y2="156.0" stroke="#22313f" stroke-width="2.4" stroke-linecap="round" /><text x="750.0" y="172.0" font-size="17" text-anchor="middle" font-weight="900" fill="#22313f" >C</text>
<line x1="739.0" y1="166.0" x2="716.0" y2="166.0" stroke="#22313f" stroke-width="2.2" stroke-linecap="round" /><line x1="761.0" y1="166.0" x2="784.0" y2="166.0" stroke="#22313f" stroke-width="2.2" stroke-linecap="round" /><text x="710.0" y="171.9" font-size="17" text-anchor="end" font-weight="800" fill="#22313f" >H</text>
<text x="790.0" y="171.9" font-size="17" text-anchor="start" font-weight="800" fill="#c0392b" >OH</text>
<line x1="750.0" y1="178.0" x2="750.0" y2="198.0" stroke="#22313f" stroke-width="2.4" stroke-linecap="round" /><text x="750.0" y="214.0" font-size="17" text-anchor="middle" font-weight="900" fill="#22313f" >C</text>
<line x1="739.0" y1="208.0" x2="716.0" y2="208.0" stroke="#22313f" stroke-width="2.2" stroke-linecap="round" /><line x1="761.0" y1="208.0" x2="784.0" y2="208.0" stroke="#22313f" stroke-width="2.2" stroke-linecap="round" /><text x="710.0" y="213.9" font-size="17" text-anchor="end" font-weight="800" fill="#22313f" >H</text>
<text x="790.0" y="213.9" font-size="17" text-anchor="start" font-weight="800" fill="#c0392b" >OH</text>
<line x1="750.0" y1="220.0" x2="750.0" y2="240.0" stroke="#22313f" stroke-width="2.4" stroke-linecap="round" /><text x="750.0" y="255.9" font-size="17" text-anchor="middle" font-weight="800" fill="#22313f" >CH₂OH</text>
<text x="750.0" y="286.0" font-size="17" text-anchor="middle" font-weight="900" fill="#0f4c81" >D-glucosa</text>
<text x="750.0" y="306.0" font-size="13" text-anchor="middle" font-weight="700" fill="#4c5b67" >aldohexosa</text>
<text x="915.0" y="46.0" font-size="17" text-anchor="middle" font-weight="800" fill="#22313f" >CHO</text>
<line x1="915.0" y1="52.0" x2="915.0" y2="72.0" stroke="#22313f" stroke-width="2.4" stroke-linecap="round" /><text x="915.0" y="88.0" font-size="17" text-anchor="middle" font-weight="900" fill="#22313f" >C</text>
<line x1="904.0" y1="82.0" x2="881.0" y2="82.0" stroke="#22313f" stroke-width="2.2" stroke-linecap="round" /><line x1="926.0" y1="82.0" x2="949.0" y2="82.0" stroke="#22313f" stroke-width="2.2" stroke-linecap="round" /><text x="875.0" y="88.0" font-size="17" text-anchor="end" font-weight="800" fill="#22313f" >H</text>
<text x="955.0" y="88.0" font-size="17" text-anchor="start" font-weight="800" fill="#c0392b" >OH</text>
<line x1="915.0" y1="94.0" x2="915.0" y2="114.0" stroke="#22313f" stroke-width="2.4" stroke-linecap="round" /><text x="915.0" y="130.0" font-size="17" text-anchor="middle" font-weight="900" fill="#22313f" >C</text>
<line x1="904.0" y1="124.0" x2="881.0" y2="124.0" stroke="#22313f" stroke-width="2.2" stroke-linecap="round" /><line x1="926.0" y1="124.0" x2="949.0" y2="124.0" stroke="#22313f" stroke-width="2.2" stroke-linecap="round" /><text x="875.0" y="129.9" font-size="17" text-anchor="end" font-weight="800" fill="#22313f" >HO</text>
<text x="955.0" y="129.9" font-size="17" text-anchor="start" font-weight="800" fill="#22313f" >H</text>
<line x1="915.0" y1="136.0" x2="915.0" y2="156.0" stroke="#22313f" stroke-width="2.4" stroke-linecap="round" /><text x="915.0" y="172.0" font-size="17" text-anchor="middle" font-weight="900" fill="#22313f" >C</text>
<line x1="904.0" y1="166.0" x2="881.0" y2="166.0" stroke="#22313f" stroke-width="2.2" stroke-linecap="round" /><line x1="926.0" y1="166.0" x2="949.0" y2="166.0" stroke="#22313f" stroke-width="2.2" stroke-linecap="round" /><text x="875.0" y="171.9" font-size="17" text-anchor="end" font-weight="800" fill="#22313f" >HO</text>
<text x="955.0" y="171.9" font-size="17" text-anchor="start" font-weight="800" fill="#22313f" >H</text>
<line x1="915.0" y1="178.0" x2="915.0" y2="198.0" stroke="#22313f" stroke-width="2.4" stroke-linecap="round" /><text x="915.0" y="214.0" font-size="17" text-anchor="middle" font-weight="900" fill="#22313f" >C</text>
<line x1="904.0" y1="208.0" x2="881.0" y2="208.0" stroke="#22313f" stroke-width="2.2" stroke-linecap="round" /><line x1="926.0" y1="208.0" x2="949.0" y2="208.0" stroke="#22313f" stroke-width="2.2" stroke-linecap="round" /><text x="875.0" y="213.9" font-size="17" text-anchor="end" font-weight="800" fill="#22313f" >H</text>
<text x="955.0" y="213.9" font-size="17" text-anchor="start" font-weight="800" fill="#c0392b" >OH</text>
<line x1="915.0" y1="220.0" x2="915.0" y2="240.0" stroke="#22313f" stroke-width="2.4" stroke-linecap="round" /><text x="915.0" y="255.9" font-size="17" text-anchor="middle" font-weight="800" fill="#22313f" >CH₂OH</text>
<text x="915.0" y="286.0" font-size="17" text-anchor="middle" font-weight="900" fill="#0f4c81" >D-galactosa</text>
<text x="915.0" y="306.0" font-size="13" text-anchor="middle" font-weight="700" fill="#4c5b67" >aldohexosa</text>
<text x="1080.0" y="46.0" font-size="17" text-anchor="middle" font-weight="800" fill="#22313f" >CH₂OH</text>
<line x1="1080.0" y1="52.0" x2="1080.0" y2="72.0" stroke="#22313f" stroke-width="2.4" stroke-linecap="round" /><text x="1080.0" y="88.0" font-size="17" text-anchor="middle" font-weight="900" fill="#22313f" >C</text>
<line x1="1091" y1="79" x2="1114" y2="79" stroke="#22313f" stroke-width="2.2"/><line x1="1091" y1="85" x2="1114" y2="85" stroke="#22313f" stroke-width="2.2"/><text x="1130.0" y="88.0" font-size="17" text-anchor="middle" font-weight="800" fill="#c0392b" >O</text>
<line x1="1080.0" y1="94.0" x2="1080.0" y2="114.0" stroke="#22313f" stroke-width="2.4" stroke-linecap="round" /><text x="1080.0" y="130.0" font-size="17" text-anchor="middle" font-weight="900" fill="#22313f" >C</text>
<line x1="1069.0" y1="124.0" x2="1046.0" y2="124.0" stroke="#22313f" stroke-width="2.2" stroke-linecap="round" /><line x1="1091.0" y1="124.0" x2="1114.0" y2="124.0" stroke="#22313f" stroke-width="2.2" stroke-linecap="round" /><text x="1040.0" y="129.9" font-size="17" text-anchor="end" font-weight="800" fill="#22313f" >HO</text>
<text x="1120.0" y="129.9" font-size="17" text-anchor="start" font-weight="800" fill="#22313f" >H</text>
<line x1="1080.0" y1="136.0" x2="1080.0" y2="156.0" stroke="#22313f" stroke-width="2.4" stroke-linecap="round" /><text x="1080.0" y="172.0" font-size="17" text-anchor="middle" font-weight="900" fill="#22313f" >C</text>
<line x1="1069.0" y1="166.0" x2="1046.0" y2="166.0" stroke="#22313f" stroke-width="2.2" stroke-linecap="round" /><line x1="1091.0" y1="166.0" x2="1114.0" y2="166.0" stroke="#22313f" stroke-width="2.2" stroke-linecap="round" /><text x="1040.0" y="171.9" font-size="17" text-anchor="end" font-weight="800" fill="#22313f" >H</text>
<text x="1120.0" y="171.9" font-size="17" text-anchor="start" font-weight="800" fill="#c0392b" >OH</text>
<line x1="1080.0" y1="178.0" x2="1080.0" y2="198.0" stroke="#22313f" stroke-width="2.4" stroke-linecap="round" /><text x="1080.0" y="214.0" font-size="17" text-anchor="middle" font-weight="900" fill="#22313f" >C</text>
<line x1="1069.0" y1="208.0" x2="1046.0" y2="208.0" stroke="#22313f" stroke-width="2.2" stroke-linecap="round" /><line x1="1091.0" y1="208.0" x2="1114.0" y2="208.0" stroke="#22313f" stroke-width="2.2" stroke-linecap="round" /><text x="1040.0" y="213.9" font-size="17" text-anchor="end" font-weight="800" fill="#22313f" >H</text>
<text x="1120.0" y="213.9" font-size="17" text-anchor="start" font-weight="800" fill="#c0392b" >OH</text>
<line x1="1080.0" y1="220.0" x2="1080.0" y2="240.0" stroke="#22313f" stroke-width="2.4" stroke-linecap="round" /><text x="1080.0" y="255.9" font-size="17" text-anchor="middle" font-weight="800" fill="#22313f" >CH₂OH</text>
<text x="1080.0" y="286.0" font-size="17" text-anchor="middle" font-weight="900" fill="#0f4c81" >D-fructosa</text>
<text x="1080.0" y="306.0" font-size="13" text-anchor="middle" font-weight="700" fill="#4c5b67" >cetohexosa</text>
<text x="590.0" y="345.0" font-size="15" text-anchor="middle" font-weight="700" fill="#4c5b67" >En la serie D, el –OH del carbono asimétrico más alejado del carbonilo está a la derecha.</text>
</svg>
