<svg xmlns="http://www.w3.org/2000/svg" viewBox="0 0 760 545" role="img" font-family="Nunito, 'Segoe UI', system-ui, sans-serif"><title>Doble hélice del ADN con cadenas antiparalelas y bases complementarias A-T con dos puentes de hidrógeno y G-C con tres</title>
<defs><marker id="fl" viewBox="0 0 10 10" refX="8" refY="5" markerWidth="7" markerHeight="7" orient="auto-start-reverse"><path d="M0,0 L10,5 L0,10 z" fill="#2a7fc1"/></marker><marker id="fk" viewBox="0 0 10 10" refX="8" refY="5" markerWidth="7" markerHeight="7" orient="auto-start-reverse"><path d="M0,0 L10,5 L0,10 z" fill="#22313f"/></marker><radialGradient id="gO" cx="35%" cy="35%" r="70%"><stop offset="0" stop-color="#f08a7e"/><stop offset="1" stop-color="#c0392b"/></radialGradient><radialGradient id="gH" cx="35%" cy="35%" r="70%"><stop offset="0" stop-color="#ffffff"/><stop offset="1" stop-color="#d5dde3"/></radialGradient></defs>
<line x1="178.5" y1="64.0" x2="150.0" y2="64.0" stroke="#e76f51" stroke-width="7" stroke-linecap="round" /><line x1="150.0" y1="64.0" x2="121.5" y2="64.0" stroke="#2a9d8f" stroke-width="7" stroke-linecap="round" /><line x1="219.6" y1="99.0" x2="150.0" y2="99.0" stroke="#2a9d8f" stroke-width="7" stroke-linecap="round" /><line x1="150.0" y1="99.0" x2="80.4" y2="99.0" stroke="#e76f51" stroke-width="7" stroke-linecap="round" /><line x1="191.1" y1="134.0" x2="150.0" y2="134.0" stroke="#264653" stroke-width="7" stroke-linecap="round" /><line x1="150.0" y1="134.0" x2="108.9" y2="134.0" stroke="#e9c46a" stroke-width="7" stroke-linecap="round" /><line x1="121.5" y1="169.0" x2="150.0" y2="169.0" stroke="#e9c46a" stroke-width="7" stroke-linecap="round" /><line x1="150.0" y1="169.0" x2="178.5" y2="169.0" stroke="#264653" stroke-width="7" stroke-linecap="round" /><line x1="80.4" y1="204.0" x2="150.0" y2="204.0" stroke="#264653" stroke-width="7" stroke-linecap="round" /><line x1="150.0" y1="204.0" x2="219.6" y2="204.0" stroke="#e9c46a" stroke-width="7" stroke-linecap="round" /><line x1="108.9" y1="239.0" x2="150.0" y2="239.0" stroke="#e76f51" stroke-width="7" stroke-linecap="round" /><line x1="150.0" y1="239.0" x2="191.1" y2="239.0" stroke="#2a9d8f" stroke-width="7" stroke-linecap="round" /><line x1="178.5" y1="274.0" x2="150.0" y2="274.0" stroke="#2a9d8f" stroke-width="7" stroke-linecap="round" /><line x1="150.0" y1="274.0" x2="121.5" y2="274.0" stroke="#e76f51" stroke-width="7" stroke-linecap="round" /><line x1="219.6" y1="309.0" x2="150.0" y2="309.0" stroke="#e9c46a" stroke-width="7" stroke-linecap="round" /><line x1="150.0" y1="309.0" x2="80.4" y2="309.0" stroke="#264653" stroke-width="7" stroke-linecap="round" /><line x1="191.1" y1="344.0" x2="150.0" y2="344.0" stroke="#2a9d8f" stroke-width="7" stroke-linecap="round" /><line x1="150.0" y1="344.0" x2="108.9" y2="344.0" stroke="#e76f51" stroke-width="7" stroke-linecap="round" /><line x1="121.5" y1="379.0" x2="150.0" y2="379.0" stroke="#e76f51" stroke-width="7" stroke-linecap="round" /><line x1="150.0" y1="379.0" x2="178.5" y2="379.0" stroke="#2a9d8f" stroke-width="7" stroke-linecap="round" /><line x1="80.4" y1="414.0" x2="150.0" y2="414.0" stroke="#264653" stroke-width="7" stroke-linecap="round" /><line x1="150.0" y1="414.0" x2="219.6" y2="414.0" stroke="#e9c46a" stroke-width="7" stroke-linecap="round" /><line x1="108.9" y1="449.0" x2="150.0" y2="449.0" stroke="#e9c46a" stroke-width="7" stroke-linecap="round" /><line x1="150.0" y1="449.0" x2="191.1" y2="449.0" stroke="#264653" stroke-width="7" stroke-linecap="round" /><polyline points="150.0,50.0 164.6,57.0 178.5,64.0 191.1,71.0 202.0,78.0 210.6,85.0 216.6,92.0 219.6,99.0 219.6,106.0 216.6,113.0 210.6,120.0 202.0,127.0 191.1,134.0 178.5,141.0 164.6,148.0 150.0,155.0 135.4,162.0 121.5,169.0 108.9,176.0 98.0,183.0 89.4,190.0 83.4,197.0 80.4,204.0 80.4,211.0 83.4,218.0 89.4,225.0 98.0,232.0 108.9,239.0 121.5,246.0 135.4,253.0 150.0,260.0 164.6,267.0 178.5,274.0 191.1,281.0 202.0,288.0 210.6,295.0 216.6,302.0 219.6,309.0 219.6,316.0 216.6,323.0 210.6,330.0 202.0,337.0 191.1,344.0 178.5,351.0 164.6,358.0 150.0,365.0 135.4,372.0 121.5,379.0 108.9,386.0 98.0,393.0 89.4,400.0 83.4,407.0 80.4,414.0 80.4,421.0 83.4,428.0 89.4,435.0 98.0,442.0 108.9,449.0 121.5,456.0 135.4,463.0 150.0,470.0" fill="none" stroke="#3d85c6" stroke-width="9" stroke-linecap="round"/><polyline points="150.0,50.0 135.4,57.0 121.5,64.0 108.9,71.0 98.0,78.0 89.4,85.0 83.4,92.0 80.4,99.0 80.4,106.0 83.4,113.0 89.4,120.0 98.0,127.0 108.9,134.0 121.5,141.0 135.4,148.0 150.0,155.0 164.6,162.0 178.5,169.0 191.1,176.0 202.0,183.0 210.6,190.0 216.6,197.0 219.6,204.0 219.6,211.0 216.6,218.0 210.6,225.0 202.0,232.0 191.1,239.0 178.5,246.0 164.6,253.0 150.0,260.0 135.4,267.0 121.5,274.0 108.9,281.0 98.0,288.0 89.4,295.0 83.4,302.0 80.4,309.0 80.4,316.0 83.4,323.0 89.4,330.0 98.0,337.0 108.9,344.0 121.5,351.0 135.4,358.0 150.0,365.0 164.6,372.0 178.5,379.0 191.1,386.0 202.0,393.0 210.6,400.0 216.6,407.0 219.6,414.0 219.6,421.0 216.6,428.0 210.6,435.0 202.0,442.0 191.1,449.0 178.5,456.0 164.6,463.0 150.0,470.0" fill="none" stroke="#e07a5f" stroke-width="9" stroke-linecap="round"/><text x="70.0" y="40.0" font-size="16" text-anchor="middle" font-weight="900" fill="#3d85c6" >5′</text>
<text x="70.0" y="492.0" font-size="16" text-anchor="middle" font-weight="900" fill="#3d85c6" >3′</text>
<text x="232.0" y="40.0" font-size="16" text-anchor="middle" font-weight="900" fill="#e07a5f" >3′</text>
<text x="232.0" y="492.0" font-size="16" text-anchor="middle" font-weight="900" fill="#e07a5f" >5′</text>
<line x1="80" y1="510" x2="220" y2="510" stroke="#22313f" stroke-width="2" marker-start="url(#fk)" marker-end="url(#fk)"/><text x="150.0" y="530.0" font-size="14" text-anchor="middle" font-weight="900" fill="#22313f" >2 nm</text>
<line x1="270" y1="50" x2="270" y2="260.0" stroke="#22313f" stroke-width="2" marker-start="url(#fk)" marker-end="url(#fk)"/><text x="278.0" y="155.0" font-size="13" text-anchor="start" font-weight="900" fill="#22313f" >una vuelta:</text>
<text x="278.0" y="173.0" font-size="13" text-anchor="start" font-weight="900" fill="#22313f" >3,4 nm</text>
<text x="278.0" y="191.0" font-size="12" text-anchor="start" font-weight="800" fill="#4c5b67" >(≈10 pares)</text>
<text x="570.0" y="40.0" font-size="17" text-anchor="middle" font-weight="900" fill="#0f4c81" >Bases complementarias</text>
<polygon points="496.5,127.4 466.5,144.7 436.4,127.4 436.4,92.6 466.5,75.3 496.5,92.6" fill="#e76f51" stroke="#22313f" stroke-width="2"/><polygon points="555.5,110.0 534.2,139.3 499.8,128.1 499.8,91.9 534.2,80.7" fill="#e76f51" stroke="#22313f" stroke-width="2"/><text x="466.5" y="116.0" font-size="39.199999999999996" text-anchor="middle" font-weight="900" fill="#fff" >A</text>
<polygon points="684.9,130.2 650.0,150.3 615.1,130.2 615.1,89.8 650.0,69.7 684.9,89.8" fill="#2a9d8f" stroke="#22313f" stroke-width="2"/><text x="650.0" y="116.0" font-size="39.199999999999996" text-anchor="middle" font-weight="900" fill="#fff" >T</text>
<line x1="538" y1="102.0" x2="612" y2="102.0" stroke="#2a7fc1" stroke-width="3" stroke-dasharray="5 4"/><line x1="538" y1="118.0" x2="612" y2="118.0" stroke="#2a7fc1" stroke-width="3" stroke-dasharray="5 4"/><text x="570.0" y="168.0" font-size="14" text-anchor="middle" font-weight="900" fill="#2a7fc1" >A = T: 2 puentes de hidrógeno</text>
<polygon points="496.5,277.4 466.5,294.7 436.4,277.4 436.4,242.6 466.5,225.3 496.5,242.6" fill="#264653" stroke="#22313f" stroke-width="2"/><polygon points="555.5,260.0 534.2,289.3 499.8,278.1 499.8,241.9 534.2,230.7" fill="#264653" stroke="#22313f" stroke-width="2"/><text x="466.5" y="266.0" font-size="39.199999999999996" text-anchor="middle" font-weight="900" fill="#fff" >G</text>
<polygon points="684.9,280.2 650.0,300.3 615.1,280.2 615.1,239.8 650.0,219.7 684.9,239.8" fill="#e9c46a" stroke="#22313f" stroke-width="2"/><text x="650.0" y="266.0" font-size="39.199999999999996" text-anchor="middle" font-weight="900" fill="#22313f" >C</text>
<line x1="538" y1="244.0" x2="612" y2="244.0" stroke="#2a7fc1" stroke-width="3" stroke-dasharray="5 4"/><line x1="538" y1="260.0" x2="612" y2="260.0" stroke="#2a7fc1" stroke-width="3" stroke-dasharray="5 4"/><line x1="538" y1="276.0" x2="612" y2="276.0" stroke="#2a7fc1" stroke-width="3" stroke-dasharray="5 4"/><text x="570.0" y="318.0" font-size="14" text-anchor="middle" font-weight="900" fill="#2a7fc1" >G = C: 3 puentes de hidrógeno</text>
<text x="570.0" y="410.0" font-size="13" text-anchor="middle" font-weight="800" fill="#4c5b67" >púrica siempre frente a pirimidínica</text>
<text x="570.0" y="430.0" font-size="13" text-anchor="middle" font-weight="800" fill="#4c5b67" >→ anchura constante de la hélice</text>
<text x="570.0" y="470.0" font-size="14" text-anchor="middle" font-weight="900" fill="#c77d00" >Regla de Chargaff (ADN bicatenario):</text>
<text x="570.0" y="492.0" font-size="14" text-anchor="middle" font-weight="900" fill="#c77d00" >A = T y G = C → A + G = T + C</text>
</svg>
