<svg xmlns="http://www.w3.org/2000/svg" viewBox="0 0 620 385" role="img" font-family="Nunito, 'Segoe UI', system-ui, sans-serif"><title>Nucleótido: ácido fosfórico unido por enlace éster al carbono 5 de la pentosa, y base nitrogenada unida al carbono 1 por enlace N-glucosídico</title>
<defs><marker id="fl" viewBox="0 0 10 10" refX="8" refY="5" markerWidth="7" markerHeight="7" orient="auto-start-reverse"><path d="M0,0 L10,5 L0,10 z" fill="#2a7fc1"/></marker><marker id="fk" viewBox="0 0 10 10" refX="8" refY="5" markerWidth="7" markerHeight="7" orient="auto-start-reverse"><path d="M0,0 L10,5 L0,10 z" fill="#22313f"/></marker><radialGradient id="gO" cx="35%" cy="35%" r="70%"><stop offset="0" stop-color="#f08a7e"/><stop offset="1" stop-color="#c0392b"/></radialGradient><radialGradient id="gH" cx="35%" cy="35%" r="70%"><stop offset="0" stop-color="#ffffff"/><stop offset="1" stop-color="#d5dde3"/></radialGradient></defs>
<polygon points="300.0,112.0 345.7,145.2 328.2,198.8 271.8,198.8 254.3,145.2" fill="#f6c3b5" stroke="#b5533c" stroke-width="3"/><circle cx="300.0" cy="112.0" r="10" fill="#fff"/><text x="300.0" y="117.0" font-size="15" text-anchor="middle" font-weight="900" fill="#c0392b" >O</text>
<text x="361.7" y="165.2" font-size="13" text-anchor="middle" font-weight="900" fill="#6d3fc0" >1′</text>
<text x="344.2" y="214.8" font-size="13" text-anchor="middle" font-weight="900" fill="#6d3fc0" >2′</text>
<text x="255.8" y="214.8" font-size="13" text-anchor="middle" font-weight="900" fill="#6d3fc0" >3′</text>
<text x="238.3" y="165.2" font-size="13" text-anchor="middle" font-weight="900" fill="#6d3fc0" >4′</text>
<line x1="254.3" y1="145.2" x2="224.3" y2="111.2" stroke="#22313f" stroke-width="3" stroke-linecap="round" /><text x="248.3" y="123.2" font-size="13" text-anchor="middle" font-weight="900" fill="#6d3fc0" >C5′</text>
<line x1="224.3" y1="111.2" x2="150.0" y2="111.2" stroke="#22313f" stroke-width="3" stroke-linecap="round" /><circle cx="130" cy="111.16718427000254" r="24" fill="#f7c948" stroke="#8a6d00" stroke-width="2.5"/><text x="130.0" y="118.4" font-size="21.6" text-anchor="middle" font-weight="900" fill="#6b5000" >P</text>
<text x="190.0" y="81.2" font-size="13" text-anchor="middle" font-weight="900" fill="#c77d00" >enlace éster</text>
<text x="190.0" y="97.2" font-size="12" text-anchor="middle" font-weight="800" fill="#c77d00" >(fosfoéster)</text>
<line x1="345.7" y1="145.2" x2="440.0" y2="145.2" stroke="#22313f" stroke-width="3" stroke-linecap="round" /><polygon points="484.7,157.6 463.2,170.0 441.7,157.6 441.7,132.8 463.2,120.4 484.7,132.8" fill="#e76f51" stroke="#22313f" stroke-width="2"/><polygon points="526.8,145.2 511.6,166.1 487.0,158.1 487.0,132.2 511.6,124.2" fill="#e76f51" stroke="#22313f" stroke-width="2"/><text x="463.2" y="151.2" font-size="28.0" text-anchor="middle" font-weight="900" fill="#fff" >A</text>
<text x="400.0" y="111.2" font-size="13" text-anchor="middle" font-weight="900" fill="#c77d00" >enlace</text>
<text x="400.0" y="127.2" font-size="13" text-anchor="middle" font-weight="900" fill="#c77d00" >N-glucosídico</text>
<line x1="328.2" y1="198.8" x2="328.2" y2="228.8" stroke="#22313f" stroke-width="2.4" stroke-linecap="round" /><text x="328.2" y="244.8" font-size="14" text-anchor="middle" font-weight="900" fill="#c0392b" >OH / H</text>
<line x1="271.8" y1="198.8" x2="271.8" y2="228.8" stroke="#22313f" stroke-width="2.4" stroke-linecap="round" /><text x="271.8" y="244.8" font-size="14" text-anchor="middle" font-weight="900" fill="#c0392b" >OH</text>
<text x="332.2" y="264.8" font-size="12" text-anchor="middle" font-weight="800" fill="#4c5b67" >ribosa / desoxirribosa</text>
<path d="M260,300 H560" stroke="#2a9d8f" stroke-width="3" fill="none"/><text x="410.0" y="322.0" font-size="15" text-anchor="middle" font-weight="900" fill="#2a9d8f" >nucleósido = pentosa + base</text>
<path d="M100,350 H560" stroke="#0f4c81" stroke-width="3" fill="none"/><text x="330.0" y="372.0" font-size="15" text-anchor="middle" font-weight="900" fill="#0f4c81" >nucleótido = fosfato + pentosa + base</text>
<text x="130.0" y="60.0" font-size="14" text-anchor="middle" font-weight="900" fill="#6b5000" >ácido fosfórico</text>
<text x="300.0" y="90.0" font-size="14" text-anchor="middle" font-weight="900" fill="#b5533c" >pentosa</text>
<text x="480.0" y="90.0" font-size="14" text-anchor="middle" font-weight="900" fill="#0f4c81" >base nitrogenada</text>
</svg>
