<svg xmlns="http://www.w3.org/2000/svg" viewBox="0 0 680 270" role="img" font-family="Nunito, 'Segoe UI', system-ui, sans-serif"><title>Proteínas globulares, esféricas y solubles, y fibrosas, alargadas e insolubles</title>
<defs><marker id="fl" viewBox="0 0 10 10" refX="8" refY="5" markerWidth="7" markerHeight="7" orient="auto-start-reverse"><path d="M0,0 L10,5 L0,10 z" fill="#2a7fc1"/></marker><marker id="fk" viewBox="0 0 10 10" refX="8" refY="5" markerWidth="7" markerHeight="7" orient="auto-start-reverse"><path d="M0,0 L10,5 L0,10 z" fill="#22313f"/></marker><radialGradient id="gO" cx="35%" cy="35%" r="70%"><stop offset="0" stop-color="#f08a7e"/><stop offset="1" stop-color="#c0392b"/></radialGradient><radialGradient id="gH" cx="35%" cy="35%" r="70%"><stop offset="0" stop-color="#ffffff"/><stop offset="1" stop-color="#d5dde3"/></radialGradient></defs>
<text x="170.0" y="28.0" font-size="18" text-anchor="middle" font-weight="900" fill="#0f4c81" >Globulares</text>
<path d="M170,60 C230,55 260,110 245,150 C230,195 170,210 130,190 C85,170 80,110 110,80 C125,66 150,61 170,60z" fill="#f4c0c7" stroke="#d1495b" stroke-width="3"/><path d="M120,120 C150,90 200,140 230,110 M130,160 C160,130 200,180 235,150" fill="none" stroke="#d1495b" stroke-width="4"/><text x="170.0" y="235.0" font-size="13" text-anchor="middle" font-weight="800" fill="#4c5b67" >esféricas · solubles en agua</text>
<text x="170.0" y="253.0" font-size="13" text-anchor="middle" font-weight="800" fill="#4c5b67" >enzimas, hemoglobina, anticuerpos, albúminas</text>
<text x="510.0" y="28.0" font-size="18" text-anchor="middle" font-weight="900" fill="#0f4c81" >Fibrosas</text>
<path d="M370,100 Q385,114 400,100 Q415,86 430,100 Q445,114 460,100 Q475,86 490,100 Q505,114 520,100 Q535,86 550,100 Q565,114 580,100 Q595,86 610,100 Q625,114 640,100" fill="none" stroke="#3d85c6" stroke-width="5"/><path d="M370,114 Q385,128 400,114 Q415,100 430,114 Q445,128 460,114 Q475,100 490,114 Q505,128 520,114 Q535,100 550,114 Q565,128 580,114 Q595,100 610,114 Q625,128 640,114" fill="none" stroke="#3d85c6" stroke-width="5"/><path d="M370,128 Q385,142 400,128 Q415,114 430,128 Q445,142 460,128 Q475,114 490,128 Q505,142 520,128 Q535,114 550,128 Q565,142 580,128 Q595,114 610,128 Q625,142 640,128" fill="none" stroke="#3d85c6" stroke-width="5"/><text x="510.0" y="235.0" font-size="13" text-anchor="middle" font-weight="800" fill="#4c5b67" >alargadas · insolubles</text>
<text x="510.0" y="253.0" font-size="13" text-anchor="middle" font-weight="800" fill="#4c5b67" >estructurales: colágeno, queratina, elastina</text>
</svg>
