<svg xmlns="http://www.w3.org/2000/svg" viewBox="0 0 1060 325" role="img" font-family="Nunito, 'Segoe UI', system-ui, sans-serif"><title>Escala de tamaños y límites de resolución del ojo y los microscopios</title>
<defs><marker id="fl" viewBox="0 0 10 10" refX="8" refY="5" markerWidth="7" markerHeight="7" orient="auto-start-reverse"><path d="M0,0 L10,5 L0,10 z" fill="#2a7fc1"/></marker><marker id="fk" viewBox="0 0 10 10" refX="8" refY="5" markerWidth="7" markerHeight="7" orient="auto-start-reverse"><path d="M0,0 L10,5 L0,10 z" fill="#22313f"/></marker><radialGradient id="gO" cx="35%" cy="35%" r="70%"><stop offset="0" stop-color="#f08a7e"/><stop offset="1" stop-color="#c0392b"/></radialGradient><radialGradient id="gH" cx="35%" cy="35%" r="70%"><stop offset="0" stop-color="#ffffff"/><stop offset="1" stop-color="#d5dde3"/></radialGradient></defs>
<line x1="60.0" y1="150.0" x2="1000.0" y2="150.0" stroke="#22313f" stroke-width="3" stroke-linecap="round" /><line x1="122.7" y1="142.0" x2="122.7" y2="158.0" stroke="#22313f" stroke-width="2" stroke-linecap="round" /><text x="122.7" y="178.0" font-size="13" text-anchor="middle" font-weight="800" fill="#4c5b67" >0,1 nm</text>
<line x1="248.0" y1="142.0" x2="248.0" y2="158.0" stroke="#22313f" stroke-width="2" stroke-linecap="round" /><text x="248.0" y="178.0" font-size="13" text-anchor="middle" font-weight="800" fill="#4c5b67" >1 nm</text>
<line x1="373.3" y1="142.0" x2="373.3" y2="158.0" stroke="#22313f" stroke-width="2" stroke-linecap="round" /><text x="373.3" y="178.0" font-size="13" text-anchor="middle" font-weight="800" fill="#4c5b67" >10 nm</text>
<line x1="498.7" y1="142.0" x2="498.7" y2="158.0" stroke="#22313f" stroke-width="2" stroke-linecap="round" /><text x="498.7" y="178.0" font-size="13" text-anchor="middle" font-weight="800" fill="#4c5b67" >100 nm</text>
<line x1="624.0" y1="142.0" x2="624.0" y2="158.0" stroke="#22313f" stroke-width="2" stroke-linecap="round" /><text x="624.0" y="178.0" font-size="13" text-anchor="middle" font-weight="800" fill="#4c5b67" >1 µm</text>
<line x1="749.3" y1="142.0" x2="749.3" y2="158.0" stroke="#22313f" stroke-width="2" stroke-linecap="round" /><text x="749.3" y="178.0" font-size="13" text-anchor="middle" font-weight="800" fill="#4c5b67" >10 µm</text>
<line x1="874.7" y1="142.0" x2="874.7" y2="158.0" stroke="#22313f" stroke-width="2" stroke-linecap="round" /><text x="874.7" y="178.0" font-size="13" text-anchor="middle" font-weight="800" fill="#4c5b67" >100 µm</text>
<line x1="1000.0" y1="142.0" x2="1000.0" y2="158.0" stroke="#22313f" stroke-width="2" stroke-linecap="round" /><text x="1000.0" y="178.0" font-size="13" text-anchor="middle" font-weight="800" fill="#4c5b67" >1 mm</text>
<circle cx="122.7" cy="150" r="5" fill="#c0392b"/><line x1="122.7" y1="145.0" x2="122.7" y2="126.0" stroke="#4c5b67" stroke-width="1" stroke-linecap="round" /><text x="122.7" y="120.0" font-size="13" text-anchor="middle" font-weight="900" fill="#22313f" >átomo</text>
<circle cx="335.6" cy="150" r="5" fill="#c0392b"/><line x1="335.6" y1="145.0" x2="335.6" y2="96.0" stroke="#4c5b67" stroke-width="1" stroke-linecap="round" /><text x="335.6" y="90.0" font-size="13" text-anchor="middle" font-weight="900" fill="#22313f" >proteína</text>
<circle cx="423.2" cy="150" r="5" fill="#c0392b"/><line x1="423.2" y1="145.0" x2="423.2" y2="126.0" stroke="#4c5b67" stroke-width="1" stroke-linecap="round" /><text x="423.2" y="120.0" font-size="13" text-anchor="middle" font-weight="900" fill="#22313f" >ribosoma</text>
<circle cx="498.7" cy="150" r="5" fill="#c0392b"/><line x1="498.7" y1="145.0" x2="498.7" y2="96.0" stroke="#4c5b67" stroke-width="1" stroke-linecap="round" /><text x="498.7" y="90.0" font-size="13" text-anchor="middle" font-weight="900" fill="#22313f" >virus</text>
<circle cx="661.7" cy="150" r="5" fill="#c0392b"/><line x1="661.7" y1="145.0" x2="661.7" y2="126.0" stroke="#4c5b67" stroke-width="1" stroke-linecap="round" /><text x="661.7" y="120.0" font-size="13" text-anchor="middle" font-weight="900" fill="#22313f" >bacteria</text>
<circle cx="661.7" cy="150" r="5" fill="#c0392b"/><line x1="661.7" y1="145.0" x2="661.7" y2="96.0" stroke="#4c5b67" stroke-width="1" stroke-linecap="round" /><text x="661.7" y="90.0" font-size="13" text-anchor="middle" font-weight="900" fill="#22313f" >mitocondria</text>
<circle cx="809.1" cy="150" r="5" fill="#c0392b"/><line x1="809.1" y1="145.0" x2="809.1" y2="126.0" stroke="#4c5b67" stroke-width="1" stroke-linecap="round" /><text x="809.1" y="120.0" font-size="13" text-anchor="middle" font-weight="900" fill="#22313f" >célula eucariota</text>
<circle cx="884.6" cy="150" r="5" fill="#c0392b"/><line x1="884.6" y1="145.0" x2="884.6" y2="96.0" stroke="#4c5b67" stroke-width="1" stroke-linecap="round" /><text x="884.6" y="90.0" font-size="13" text-anchor="middle" font-weight="900" fill="#22313f" >óvulo humano</text>
<rect x="912.4" y="200" width="87.6" height="22" rx="8" fill="#7b8a97" opacity="0.85"/><text x="956.2" y="216.0" font-size="13" text-anchor="middle" font-weight="900" fill="#fff" >ojo</text>
<rect x="536.4" y="230" width="376.0" height="22" rx="8" fill="#c77d00" opacity="0.85"/><text x="724.4" y="246.0" font-size="13" text-anchor="middle" font-weight="900" fill="#fff" >microscopio óptico (≥ 0,2 µm)</text>
<rect x="160.4" y="260" width="376.0" height="22" rx="8" fill="#0f4c81" opacity="0.85"/><text x="348.4" y="276.0" font-size="13" text-anchor="middle" font-weight="900" fill="#fff" >microscopio electrónico (≈ nm)</text>
<text x="530.0" y="310.0" font-size="13" text-anchor="middle" font-weight="800" fill="#4c5b67" >Límite de resolución: distancia mínima entre dos puntos para verlos separados (cuanto menor, mejor).</text>
</svg>
