<svg xmlns="http://www.w3.org/2000/svg" viewBox="0 0 1020 520" role="img" font-family="Nunito, 'Segoe UI', system-ui, sans-serif"><title>Experimento de Meselson y Stahl: replicación semiconservativa</title>
<defs><marker id="fl" viewBox="0 0 10 10" refX="8" refY="5" markerWidth="7" markerHeight="7" orient="auto-start-reverse"><path d="M0,0 L10,5 L0,10 z" fill="#2a7fc1"/></marker><marker id="fk" viewBox="0 0 10 10" refX="8" refY="5" markerWidth="7" markerHeight="7" orient="auto-start-reverse"><path d="M0,0 L10,5 L0,10 z" fill="#22313f"/></marker><radialGradient id="gO" cx="35%" cy="35%" r="70%"><stop offset="0" stop-color="#f08a7e"/><stop offset="1" stop-color="#c0392b"/></radialGradient><radialGradient id="gH" cx="35%" cy="35%" r="70%"><stop offset="0" stop-color="#ffffff"/><stop offset="1" stop-color="#d5dde3"/></radialGradient></defs>
<text x="110.0" y="30.0" font-size="18" text-anchor="middle" font-weight="900" fill="#0f4c81" >Generación 0</text>
<text x="380.0" y="30.0" font-size="18" text-anchor="middle" font-weight="900" fill="#0f4c81" >Generación 1</text>
<text x="740.0" y="30.0" font-size="18" text-anchor="middle" font-weight="900" fill="#0f4c81" >Generación 2</text>
<line x1="99.0" y1="60.0" x2="99.0" y2="170.0" stroke="#1f5f99" stroke-width="8" stroke-linecap="round" /><line x1="121.0" y1="60.0" x2="121.0" y2="170.0" stroke="#1f5f99" stroke-width="8" stroke-linecap="round" /><line x1="103.0" y1="78.3" x2="117.0" y2="78.3" stroke="#b8c2cc" stroke-width="2" stroke-linecap="round" /><line x1="103.0" y1="96.7" x2="117.0" y2="96.7" stroke="#b8c2cc" stroke-width="2" stroke-linecap="round" /><line x1="103.0" y1="115.0" x2="117.0" y2="115.0" stroke="#b8c2cc" stroke-width="2" stroke-linecap="round" /><line x1="103.0" y1="133.3" x2="117.0" y2="133.3" stroke="#b8c2cc" stroke-width="2" stroke-linecap="round" /><line x1="103.0" y1="151.7" x2="117.0" y2="151.7" stroke="#b8c2cc" stroke-width="2" stroke-linecap="round" /><line x1="160.0" y1="115.0" x2="300.0" y2="115.0" stroke="#22313f" stroke-width="2.5" stroke-linecap="round" marker-end="url(#fk)"/><text x="230.0" y="100.0" font-size="14" text-anchor="middle" font-weight="800" fill="#4c5b67" >replicación</text>
<text x="230.0" y="140.0" font-size="14" text-anchor="middle" font-weight="900" fill="#e07a2e" >en ¹⁴N</text>
<line x1="330.0" y1="60.0" x2="330.0" y2="170.0" stroke="#1f5f99" stroke-width="8" stroke-linecap="round" /><line x1="352.0" y1="60.0" x2="352.0" y2="170.0" stroke="#e07a2e" stroke-width="8" stroke-linecap="round" /><line x1="334.0" y1="78.3" x2="348.0" y2="78.3" stroke="#b8c2cc" stroke-width="2" stroke-linecap="round" /><line x1="334.0" y1="96.7" x2="348.0" y2="96.7" stroke="#b8c2cc" stroke-width="2" stroke-linecap="round" /><line x1="334.0" y1="115.0" x2="348.0" y2="115.0" stroke="#b8c2cc" stroke-width="2" stroke-linecap="round" /><line x1="334.0" y1="133.3" x2="348.0" y2="133.3" stroke="#b8c2cc" stroke-width="2" stroke-linecap="round" /><line x1="334.0" y1="151.7" x2="348.0" y2="151.7" stroke="#b8c2cc" stroke-width="2" stroke-linecap="round" /><line x1="410.0" y1="60.0" x2="410.0" y2="170.0" stroke="#e07a2e" stroke-width="8" stroke-linecap="round" /><line x1="432.0" y1="60.0" x2="432.0" y2="170.0" stroke="#1f5f99" stroke-width="8" stroke-linecap="round" /><line x1="414.0" y1="78.3" x2="428.0" y2="78.3" stroke="#b8c2cc" stroke-width="2" stroke-linecap="round" /><line x1="414.0" y1="96.7" x2="428.0" y2="96.7" stroke="#b8c2cc" stroke-width="2" stroke-linecap="round" /><line x1="414.0" y1="115.0" x2="428.0" y2="115.0" stroke="#b8c2cc" stroke-width="2" stroke-linecap="round" /><line x1="414.0" y1="133.3" x2="428.0" y2="133.3" stroke="#b8c2cc" stroke-width="2" stroke-linecap="round" /><line x1="414.0" y1="151.7" x2="428.0" y2="151.7" stroke="#b8c2cc" stroke-width="2" stroke-linecap="round" /><line x1="470.0" y1="115.0" x2="590.0" y2="115.0" stroke="#22313f" stroke-width="2.5" stroke-linecap="round" marker-end="url(#fk)"/><text x="530.0" y="140.0" font-size="14" text-anchor="middle" font-weight="900" fill="#e07a2e" >en ¹⁴N</text>
<line x1="625.0" y1="60.0" x2="625.0" y2="170.0" stroke="#1f5f99" stroke-width="8" stroke-linecap="round" /><line x1="647.0" y1="60.0" x2="647.0" y2="170.0" stroke="#e07a2e" stroke-width="8" stroke-linecap="round" /><line x1="629.0" y1="78.3" x2="643.0" y2="78.3" stroke="#b8c2cc" stroke-width="2" stroke-linecap="round" /><line x1="629.0" y1="96.7" x2="643.0" y2="96.7" stroke="#b8c2cc" stroke-width="2" stroke-linecap="round" /><line x1="629.0" y1="115.0" x2="643.0" y2="115.0" stroke="#b8c2cc" stroke-width="2" stroke-linecap="round" /><line x1="629.0" y1="133.3" x2="643.0" y2="133.3" stroke="#b8c2cc" stroke-width="2" stroke-linecap="round" /><line x1="629.0" y1="151.7" x2="643.0" y2="151.7" stroke="#b8c2cc" stroke-width="2" stroke-linecap="round" /><line x1="705.0" y1="60.0" x2="705.0" y2="170.0" stroke="#e07a2e" stroke-width="8" stroke-linecap="round" /><line x1="727.0" y1="60.0" x2="727.0" y2="170.0" stroke="#e07a2e" stroke-width="8" stroke-linecap="round" /><line x1="709.0" y1="78.3" x2="723.0" y2="78.3" stroke="#b8c2cc" stroke-width="2" stroke-linecap="round" /><line x1="709.0" y1="96.7" x2="723.0" y2="96.7" stroke="#b8c2cc" stroke-width="2" stroke-linecap="round" /><line x1="709.0" y1="115.0" x2="723.0" y2="115.0" stroke="#b8c2cc" stroke-width="2" stroke-linecap="round" /><line x1="709.0" y1="133.3" x2="723.0" y2="133.3" stroke="#b8c2cc" stroke-width="2" stroke-linecap="round" /><line x1="709.0" y1="151.7" x2="723.0" y2="151.7" stroke="#b8c2cc" stroke-width="2" stroke-linecap="round" /><line x1="785.0" y1="60.0" x2="785.0" y2="170.0" stroke="#e07a2e" stroke-width="8" stroke-linecap="round" /><line x1="807.0" y1="60.0" x2="807.0" y2="170.0" stroke="#e07a2e" stroke-width="8" stroke-linecap="round" /><line x1="789.0" y1="78.3" x2="803.0" y2="78.3" stroke="#b8c2cc" stroke-width="2" stroke-linecap="round" /><line x1="789.0" y1="96.7" x2="803.0" y2="96.7" stroke="#b8c2cc" stroke-width="2" stroke-linecap="round" /><line x1="789.0" y1="115.0" x2="803.0" y2="115.0" stroke="#b8c2cc" stroke-width="2" stroke-linecap="round" /><line x1="789.0" y1="133.3" x2="803.0" y2="133.3" stroke="#b8c2cc" stroke-width="2" stroke-linecap="round" /><line x1="789.0" y1="151.7" x2="803.0" y2="151.7" stroke="#b8c2cc" stroke-width="2" stroke-linecap="round" /><line x1="865.0" y1="60.0" x2="865.0" y2="170.0" stroke="#e07a2e" stroke-width="8" stroke-linecap="round" /><line x1="887.0" y1="60.0" x2="887.0" y2="170.0" stroke="#1f5f99" stroke-width="8" stroke-linecap="round" /><line x1="869.0" y1="78.3" x2="883.0" y2="78.3" stroke="#b8c2cc" stroke-width="2" stroke-linecap="round" /><line x1="869.0" y1="96.7" x2="883.0" y2="96.7" stroke="#b8c2cc" stroke-width="2" stroke-linecap="round" /><line x1="869.0" y1="115.0" x2="883.0" y2="115.0" stroke="#b8c2cc" stroke-width="2" stroke-linecap="round" /><line x1="869.0" y1="133.3" x2="883.0" y2="133.3" stroke="#b8c2cc" stroke-width="2" stroke-linecap="round" /><line x1="869.0" y1="151.7" x2="883.0" y2="151.7" stroke="#b8c2cc" stroke-width="2" stroke-linecap="round" /><path d="M84,230 V380 A26,26 0 0 0 136,380 V230" fill="#f4f8fb" stroke="#7b8a97" stroke-width="3"/><rect x="88" y="375" width="44" height="10" rx="4" fill="#22313f"/><text x="110.0" y="440.0" font-size="15" text-anchor="middle" font-weight="900" fill="#0f4c81" >solo pesado</text>
<path d="M354,230 V380 A26,26 0 0 0 406,380 V230" fill="#f4f8fb" stroke="#7b8a97" stroke-width="3"/><rect x="358" y="325" width="44" height="10" rx="4" fill="#22313f"/><text x="380.0" y="440.0" font-size="15" text-anchor="middle" font-weight="900" fill="#0f4c81" >solo intermedio</text>
<path d="M714,230 V380 A26,26 0 0 0 766,380 V230" fill="#f4f8fb" stroke="#7b8a97" stroke-width="3"/><rect x="718" y="325" width="44" height="10" rx="4" fill="#22313f"/><rect x="718" y="275" width="44" height="10" rx="4" fill="#22313f"/><text x="740.0" y="440.0" font-size="15" text-anchor="middle" font-weight="900" fill="#0f4c81" >intermedio + ligero</text>
<text x="905.0" y="385.0" font-size="14" text-anchor="start" font-weight="800" fill="#4c5b67" >pesado</text>
<line x1="780.0" y1="380.0" x2="895.0" y2="380.0" stroke="#c3ccd4" stroke-width="1.2" stroke-linecap="round" stroke-dasharray="3 3"/><text x="905.0" y="335.0" font-size="14" text-anchor="start" font-weight="800" fill="#4c5b67" >intermedio</text>
<line x1="780.0" y1="330.0" x2="895.0" y2="330.0" stroke="#c3ccd4" stroke-width="1.2" stroke-linecap="round" stroke-dasharray="3 3"/><text x="905.0" y="285.0" font-size="14" text-anchor="start" font-weight="800" fill="#4c5b67" >ligero</text>
<line x1="780.0" y1="280.0" x2="895.0" y2="280.0" stroke="#c3ccd4" stroke-width="1.2" stroke-linecap="round" stroke-dasharray="3 3"/><text x="905.0" y="403.0" font-size="13" text-anchor="start" font-weight="800" fill="#1f5f99" >(¹⁵N-¹⁵N)</text>
<text x="905.0" y="353.0" font-size="13" text-anchor="start" font-weight="800" fill="#4c5b67" >(¹⁵N-¹⁴N)</text>
<text x="905.0" y="303.0" font-size="13" text-anchor="start" font-weight="800" fill="#e07a2e" >(¹⁴N-¹⁴N)</text>
<text x="940.0" y="240.0" font-size="14" text-anchor="middle" font-weight="900" fill="#4c5b67" >Densidad</text>
<rect x="40" y="474" width="30" height="8" rx="4" fill="#1f5f99"/><text x="80.0" y="483.0" font-size="14" text-anchor="start" font-weight="800" fill="#22313f" >hebra original (¹⁵N, pesada)</text>
<rect x="40" y="498" width="30" height="8" rx="4" fill="#e07a2e"/><text x="80.0" y="507.0" font-size="14" text-anchor="start" font-weight="800" fill="#22313f" >hebra nueva (¹⁴N, ligera)</text>
<text x="720.0" y="494.0" font-size="16" text-anchor="middle" font-weight="900" fill="#0f4c81" >Cada ADN hijo: una hebra vieja + una nueva</text>
</svg>
