<svg xmlns="http://www.w3.org/2000/svg" viewBox="0 0 660 262" role="img" font-family="Nunito, 'Segoe UI', system-ui, sans-serif"><title>Las moléculas de jabón rodean una gota de grasa formando una micela que el agua arrastra</title>
<defs><marker id="fl" viewBox="0 0 10 10" refX="8" refY="5" markerWidth="7" markerHeight="7" orient="auto-start-reverse"><path d="M0,0 L10,5 L0,10 z" fill="#2a7fc1"/></marker><marker id="fk" viewBox="0 0 10 10" refX="8" refY="5" markerWidth="7" markerHeight="7" orient="auto-start-reverse"><path d="M0,0 L10,5 L0,10 z" fill="#22313f"/></marker><radialGradient id="gO" cx="35%" cy="35%" r="70%"><stop offset="0" stop-color="#f08a7e"/><stop offset="1" stop-color="#c0392b"/></radialGradient><radialGradient id="gH" cx="35%" cy="35%" r="70%"><stop offset="0" stop-color="#ffffff"/><stop offset="1" stop-color="#d5dde3"/></radialGradient></defs>
<rect x="0" y="0" width="660" height="260" fill="#eaf4fb"/><circle cx="200" cy="135" r="62" fill="#f3d27a" stroke="#c9a227" stroke-width="2"/><text x="200.0" y="140.0" font-size="15" text-anchor="middle" font-weight="900" fill="#7a5c00" >grasa</text>
<line x1="300.0" y1="135.0" x2="250.0" y2="135.0" stroke="#b8862d" stroke-width="3" stroke-linecap="round" /><circle cx="300.0" cy="135.0" r="9" fill="#2a7fc1"/><line x1="294.0" y1="169.2" x2="247.0" y2="152.1" stroke="#b8862d" stroke-width="3" stroke-linecap="round" /><circle cx="294.0" cy="169.2" r="9" fill="#2a7fc1"/><line x1="276.6" y1="199.3" x2="238.3" y2="167.1" stroke="#b8862d" stroke-width="3" stroke-linecap="round" /><circle cx="276.6" cy="199.3" r="9" fill="#2a7fc1"/><line x1="250.0" y1="221.6" x2="225.0" y2="178.3" stroke="#b8862d" stroke-width="3" stroke-linecap="round" /><circle cx="250.0" cy="221.6" r="9" fill="#2a7fc1"/><line x1="217.4" y1="233.5" x2="208.7" y2="184.2" stroke="#b8862d" stroke-width="3" stroke-linecap="round" /><circle cx="217.4" cy="233.5" r="9" fill="#2a7fc1"/><line x1="182.6" y1="233.5" x2="191.3" y2="184.2" stroke="#b8862d" stroke-width="3" stroke-linecap="round" /><circle cx="182.6" cy="233.5" r="9" fill="#2a7fc1"/><line x1="150.0" y1="221.6" x2="175.0" y2="178.3" stroke="#b8862d" stroke-width="3" stroke-linecap="round" /><circle cx="150.0" cy="221.6" r="9" fill="#2a7fc1"/><line x1="123.4" y1="199.3" x2="161.7" y2="167.1" stroke="#b8862d" stroke-width="3" stroke-linecap="round" /><circle cx="123.4" cy="199.3" r="9" fill="#2a7fc1"/><line x1="106.0" y1="169.2" x2="153.0" y2="152.1" stroke="#b8862d" stroke-width="3" stroke-linecap="round" /><circle cx="106.0" cy="169.2" r="9" fill="#2a7fc1"/><line x1="100.0" y1="135.0" x2="150.0" y2="135.0" stroke="#b8862d" stroke-width="3" stroke-linecap="round" /><circle cx="100.0" cy="135.0" r="9" fill="#2a7fc1"/><line x1="106.0" y1="100.8" x2="153.0" y2="117.9" stroke="#b8862d" stroke-width="3" stroke-linecap="round" /><circle cx="106.0" cy="100.8" r="9" fill="#2a7fc1"/><line x1="123.4" y1="70.7" x2="161.7" y2="102.9" stroke="#b8862d" stroke-width="3" stroke-linecap="round" /><circle cx="123.4" cy="70.7" r="9" fill="#2a7fc1"/><line x1="150.0" y1="48.4" x2="175.0" y2="91.7" stroke="#b8862d" stroke-width="3" stroke-linecap="round" /><circle cx="150.0" cy="48.4" r="9" fill="#2a7fc1"/><line x1="182.6" y1="36.5" x2="191.3" y2="85.8" stroke="#b8862d" stroke-width="3" stroke-linecap="round" /><circle cx="182.6" cy="36.5" r="9" fill="#2a7fc1"/><line x1="217.4" y1="36.5" x2="208.7" y2="85.8" stroke="#b8862d" stroke-width="3" stroke-linecap="round" /><circle cx="217.4" cy="36.5" r="9" fill="#2a7fc1"/><line x1="250.0" y1="48.4" x2="225.0" y2="91.7" stroke="#b8862d" stroke-width="3" stroke-linecap="round" /><circle cx="250.0" cy="48.4" r="9" fill="#2a7fc1"/><line x1="276.6" y1="70.7" x2="238.3" y2="102.9" stroke="#b8862d" stroke-width="3" stroke-linecap="round" /><circle cx="276.6" cy="70.7" r="9" fill="#2a7fc1"/><line x1="294.0" y1="100.8" x2="247.0" y2="117.9" stroke="#b8862d" stroke-width="3" stroke-linecap="round" /><circle cx="294.0" cy="100.8" r="9" fill="#2a7fc1"/><text x="200.0" y="252.0" font-size="14" text-anchor="middle" font-weight="800" fill="#22313f" >Micela de jabón: las colas atrapan la grasa</text>
<line x1="380.0" y1="75.0" x2="398.0" y2="85.0" stroke="#b8862d" stroke-width="2.6" stroke-linecap="round" /><line x1="398.0" y1="85.0" x2="416.0" y2="75.0" stroke="#b8862d" stroke-width="2.6" stroke-linecap="round" /><line x1="416.0" y1="75.0" x2="434.0" y2="85.0" stroke="#b8862d" stroke-width="2.6" stroke-linecap="round" /><line x1="434.0" y1="85.0" x2="452.0" y2="75.0" stroke="#b8862d" stroke-width="2.6" stroke-linecap="round" /><line x1="452.0" y1="75.0" x2="470.0" y2="85.0" stroke="#b8862d" stroke-width="2.6" stroke-linecap="round" /><line x1="470.0" y1="85.0" x2="488.0" y2="75.0" stroke="#b8862d" stroke-width="2.6" stroke-linecap="round" /><line x1="488.0" y1="75.0" x2="506.0" y2="85.0" stroke="#b8862d" stroke-width="2.6" stroke-linecap="round" /><line x1="506.0" y1="85.0" x2="524.0" y2="75.0" stroke="#b8862d" stroke-width="2.6" stroke-linecap="round" /><circle cx="538.0" cy="75.0" r="14" fill="#2a7fc1"/><text x="556.0" y="80.0" font-size="15" text-anchor="start" font-weight="900" fill="#2a7fc1" >COO⁻ Na⁺</text>
<text x="470.0" y="40.0" font-size="16" text-anchor="middle" font-weight="900" fill="#0f4c81" >Jabón = sal de ácido graso</text>
<text x="470.0" y="118.0" font-size="13" text-anchor="middle" font-weight="800" fill="#8a6d00" >cola apolar: se une a la grasa</text>
<text x="560.0" y="150.0" font-size="13" text-anchor="middle" font-weight="800" fill="#2a7fc1" >cabeza iónica: se une al agua</text>
<text x="480.0" y="200.0" font-size="14" text-anchor="middle" font-weight="800" fill="#22313f" >Al aclarar, el agua arrastra</text>
<text x="480.0" y="220.0" font-size="14" text-anchor="middle" font-weight="800" fill="#22313f" >las micelas con la grasa.</text>
</svg>
